<svg width="80" height="29" viewBox="0 0 80 29" fill="none" xmlns="http://www.w3.org/2000/svg">
<path d="M36.9006 10.0488C36.5512 10.914 36.034 11.7012 35.379 12.3648C34.6877 13.0611 33.8636 13.611 32.9558 13.9815C32.048 14.352 31.075 14.5356 30.0949 14.5214C29.0787 14.534 28.0705 14.3395 27.1317 13.9497C26.2726 13.5931 25.4934 13.0677 24.8403 12.4045C24.1871 11.7413 23.6731 10.9538 23.3287 10.0883C22.6081 8.28627 22.6081 6.27533 23.3287 4.47327C23.678 3.60806 24.1952 2.82087 24.8503 2.15727C25.5156 1.48721 26.3041 0.952529 27.1722 0.582732C28.109 0.186262 29.1175 -0.0119467 30.1344 0.000586047C31.1506 -0.0121359 32.1588 0.182389 33.0976 0.572309C33.957 0.928359 34.7364 1.45355 35.3897 2.11682C36.0429 2.78008 36.5567 3.56794 36.9006 4.43371C37.6212 6.23577 37.6212 8.2467 36.9006 10.0488ZM34.5101 5.34592C34.2886 4.75635 33.9558 4.21506 33.53 3.75161C33.1039 3.29257 32.5899 2.92423 32.0187 2.66858C31.4142 2.4052 30.7624 2.26842 30.1032 2.26663C29.4441 2.26484 28.7915 2.39807 28.1856 2.65816C27.6213 2.90705 27.1138 3.26886 26.6941 3.72139C26.2721 4.18211 25.9426 4.71985 25.7233 5.30531C25.2563 6.55314 25.2563 7.92825 25.7233 9.17608C25.9446 9.76577 26.2774 10.3071 26.7034 10.7704C27.1296 11.2298 27.644 11.5982 28.2157 11.8535C28.8195 12.1249 29.4747 12.262 30.1365 12.2554C30.7945 12.2625 31.4464 12.129 32.0489 11.8638C32.6128 11.6144 33.1203 11.2527 33.5403 10.8006C33.9616 10.3395 34.2907 9.80187 34.5101 9.2167C34.9784 7.96911 34.9784 6.59351 34.5101 5.34592Z" fill="white"/>
<path d="M47.5374 0.240967H49.9747V12.0542H57.3417V14.2807H47.5333L47.5374 0.240967Z" fill="white"/>
<path d="M79.1713 10.0184C78.8227 10.8631 78.3011 11.6251 77.6403 12.2552C76.9557 12.8979 76.1535 13.4018 75.2779 13.7392C74.3163 14.1086 73.2935 14.2923 72.2637 14.2807H67.041V0.241002H72.2658C73.2948 0.229433 74.3169 0.409872 75.2799 0.773126C76.1564 1.10402 76.9592 1.60475 77.6424 2.24667C78.3015 2.87427 78.8229 3.63251 79.1734 4.47311C79.894 6.25103 79.894 8.24046 79.1734 10.0184H79.1713ZM76.7808 5.35723C76.5569 4.79021 76.2222 4.27365 75.7965 3.83786C75.3605 3.39837 74.8376 3.05503 74.2614 2.82983C73.6217 2.58128 72.9404 2.45826 72.2544 2.46745H69.4835V12.0543H72.2523C72.9373 12.0632 73.618 11.9438 74.2593 11.7023C74.8343 11.4844 75.3573 11.1481 75.7944 10.7151C76.2216 10.2836 76.5565 9.7695 76.7787 9.20405C77.2457 7.96446 77.2457 6.59682 76.7787 5.35723H76.7808Z" fill="white"/>
<path d="M11.9436 13.1632C11.0477 13.7308 10.0552 14.1283 9.01572 14.3358C8.43621 14.4505 7.84678 14.5074 7.25608 14.5056C6.23702 14.5196 5.22517 14.3324 4.27831 13.9547C3.42236 13.614 2.64633 13.099 1.99939 12.4422C1.35245 11.7854 0.848679 11.0012 0.52 10.1391C0.167757 9.226 -0.00858072 8.25427 0.000320957 7.27536C-0.0049287 6.31541 0.175074 5.36348 0.530403 4.47198C0.870215 3.61063 1.37594 2.82471 2.01875 2.1591C2.67065 1.48977 3.44759 0.95549 4.30534 0.586652C5.2246 0.192557 6.21572 -0.00535581 7.21554 0.00555472C7.77462 0.00146715 8.33304 0.0450143 8.88475 0.135726C9.35808 0.215902 9.82294 0.340031 10.2733 0.506471C10.6944 0.664369 11.0995 0.862065 11.4831 1.09691C11.8728 1.33879 12.2435 1.60997 12.5921 1.90813L11.0331 3.77114C10.7723 3.54682 10.4985 3.33817 10.213 3.14631C9.93621 2.96066 9.64167 2.803 9.33376 2.67562C9.00781 2.54298 8.66983 2.4422 8.32454 2.37466C7.92613 2.29882 7.52129 2.26221 7.11577 2.26534C6.49762 2.26057 5.88619 2.39398 5.326 2.65585C4.77902 2.91266 4.28967 3.27787 3.88752 3.72947C3.47406 4.19523 3.14895 4.73272 2.92819 5.31549C2.69221 5.9297 2.57341 6.58284 2.57794 7.24097C2.57131 7.92514 2.68639 8.60503 2.9178 9.24874C3.13003 9.84046 3.45993 10.3829 3.88752 10.8431C4.30952 11.2938 4.81972 11.6526 5.38628 11.8969C6.00239 12.1583 6.6661 12.2881 7.33507 12.2781C7.97036 12.2834 8.60228 12.185 9.20592 11.9865C9.74744 11.8116 10.2571 11.55 10.7151 11.2117V8.57288H7.13759V6.43081H13.0942V12.3187C12.7303 12.6262 12.3459 12.9083 11.9436 13.1632Z" fill="white"/>
<path style="mix-blend-mode:multiply" opacity="0.6" d="M11.9436 13.1632C11.0477 13.7308 10.0552 14.1283 9.01572 14.3358C8.43621 14.4505 7.84678 14.5074 7.25608 14.5056C6.23702 14.5196 5.22517 14.3324 4.27831 13.9547C3.42236 13.614 2.64633 13.099 1.99939 12.4422C1.35245 11.7854 0.848679 11.0012 0.52 10.1391C0.167757 9.226 -0.00858072 8.25427 0.000320957 7.27536C-0.0049287 6.31541 0.175074 5.36348 0.530403 4.47198C0.870215 3.61063 1.37594 2.82471 2.01875 2.1591C2.67065 1.48977 3.44759 0.95549 4.30534 0.586652C5.2246 0.192557 6.21572 -0.00535581 7.21554 0.00555472C7.77462 0.00146715 8.33304 0.0450143 8.88475 0.135726C9.35808 0.215902 9.82294 0.340031 10.2733 0.506471C10.6944 0.664369 11.0995 0.862065 11.4831 1.09691C11.8728 1.33879 12.2435 1.60997 12.5921 1.90813L11.0331 3.77114C10.7723 3.54682 10.4985 3.33817 10.213 3.14631C9.93621 2.96066 9.64167 2.803 9.33376 2.67562C9.00781 2.54298 8.66983 2.4422 8.32454 2.37466C7.92613 2.29882 7.52129 2.26221 7.11577 2.26534C6.49762 2.26057 5.88619 2.39398 5.326 2.65585C4.77902 2.91266 4.28967 3.27787 3.88752 3.72947C3.47406 4.19523 3.14895 4.73272 2.92819 5.31549C2.69221 5.9297 2.57341 6.58284 2.57794 7.24097C2.57131 7.92514 2.68639 8.60503 2.9178 9.24874C3.13003 9.84046 3.45993 10.3829 3.88752 10.8431C4.30952 11.2938 4.81972 11.6526 5.38628 11.8969C6.00239 12.1583 6.6661 12.2881 7.33507 12.2781C7.97036 12.2834 8.60228 12.185 9.20592 11.9865C9.74744 11.8116 10.2571 11.55 10.7151 11.2117V8.57288H7.13759V6.43081H13.0942V12.3187C12.7303 12.6262 12.3459 12.9083 11.9436 13.1632Z" fill="url(#paint0_linear)"/>
<path d="M13.0931 12.3179V6.43005H7.13654V8.57215H10.714V13.7998C11.1404 13.6193 11.5515 13.4048 11.9436 13.1583C12.3454 12.9047 12.7295 12.6239 13.0931 12.3179Z" fill="white"/>
<path d="M5.32684 2.655C5.88703 2.39313 6.49846 2.25972 7.11661 2.26448C7.52213 2.26136 7.92699 2.29799 8.32539 2.37384C8.67068 2.44137 9.00865 2.54216 9.3346 2.67479C9.64252 2.80217 9.93707 2.95984 10.2139 3.14549C10.4993 3.33735 10.7732 3.54596 11.0339 3.77028L12.593 1.90727C12.2444 1.60911 11.8736 1.33793 11.484 1.09606C11.1004 0.861211 10.6953 0.663515 10.2742 0.505617C9.82349 0.339045 9.35826 0.214914 8.88456 0.134871C8.33491 0.0444079 7.77859 0.000861257 7.22158 0.00470022C6.22177 -0.0062103 5.23066 0.191703 4.3114 0.585798C3.45365 0.954636 2.67669 1.48895 2.0248 2.15827C1.38198 2.82389 0.876256 3.60977 0.536444 4.47113C0.255638 5.1772 0.0859252 5.92268 0.0333862 6.68092C1.21392 4.70542 3.11035 3.2631 5.32684 2.655Z" fill="white"/>
<path d="M11.8061 26.7779H11.7604L8.86574 22.526V28.9616H7.99164V21.0004H8.90005L11.7946 25.3439L14.6882 21.0004H15.5966V28.9606H14.6997V22.5135L11.8061 26.7779Z" fill="white"/>
<path d="M26.3103 21.8209H21.4648V24.5409H25.8V25.3605H21.4648V28.1461H26.3696V28.9646H20.5699V21.0002H26.3124L26.3103 21.8209Z" fill="white"/>
<path d="M34.7104 26.7778H34.6647L31.7742 22.5259V28.9615H30.9001V21.0002H31.8085L34.7031 25.3438L37.5946 21.0002H38.503V28.9605H37.606V22.5134L34.7104 26.7778Z" fill="white"/>
<path d="M47.9134 21.1441C48.2067 21.2266 48.4827 21.3614 48.7283 21.5419C48.9487 21.7057 49.1269 21.92 49.2479 22.1667C49.3709 22.4237 49.4327 22.7056 49.4288 22.9905C49.4347 23.2263 49.3996 23.4613 49.3249 23.685C49.2575 23.8732 49.1599 24.0491 49.0359 24.2057C48.9214 24.3523 48.7859 24.4811 48.6337 24.5879C48.49 24.6885 48.3365 24.774 48.1753 24.843C48.405 24.9091 48.6272 24.9988 48.8384 25.1107C49.0363 25.2141 49.2178 25.3464 49.3768 25.5033C49.5311 25.6599 49.6539 25.8448 49.7385 26.0479C49.8331 26.279 49.8794 26.5271 49.8747 26.7769C49.8786 27.0962 49.8074 27.4119 49.6668 27.6985C49.5304 27.9715 49.3304 28.2076 49.0837 28.3868C48.8081 28.5836 48.4988 28.7279 48.1712 28.8127C47.7868 28.9153 47.3903 28.9651 46.9925 28.9606H43.4691V21.0004H46.845C47.2062 20.9961 47.5661 21.0445 47.9134 21.1441ZM48.0257 24.1849C48.1936 24.063 48.3282 23.9009 48.4172 23.7133C48.5062 23.5256 48.5467 23.3186 48.535 23.1112C48.5416 22.9266 48.5039 22.743 48.4251 22.5759C48.3462 22.4088 48.2285 22.2631 48.0818 22.1511C47.6987 21.8921 47.2406 21.7679 46.7795 21.7981H44.3692V24.5494H46.7119C47.1772 24.5696 47.637 24.442 48.0257 24.1849ZM48.457 27.7891C48.6255 27.67 48.7614 27.5105 48.8522 27.325C48.943 27.1396 48.9858 26.9343 48.9767 26.7279C48.9845 26.5259 48.9396 26.3254 48.8465 26.146C48.7533 25.9667 48.6151 25.8148 48.4456 25.7053C47.9668 25.4345 47.4196 25.3093 46.8709 25.345H44.3692V28.165H47.03C47.5332 28.193 48.0325 28.0614 48.457 27.7891Z" fill="white"/>
<path d="M60.1342 21.8209H55.2887V24.5409H59.6238V25.3605H55.2887V28.1461H60.1913V28.9646H54.3917V21.0002H60.1342V21.8209Z" fill="white"/>
<path d="M70.1899 28.9616L67.8867 25.8688H65.6168V28.9616H64.7219V21.0003H68.1382C68.54 20.995 68.9401 21.0527 69.3241 21.1711C69.6532 21.2727 69.9596 21.4371 70.2263 21.6554C70.4727 21.8588 70.6705 22.115 70.8052 22.4051C70.9454 22.7103 71.0164 23.0429 71.0131 23.3788C71.0183 23.6838 70.9643 23.9869 70.8541 24.2713C70.7522 24.5269 70.5998 24.7592 70.4061 24.9544C70.2057 25.1529 69.9735 25.3162 69.7191 25.4376C69.4458 25.569 69.1554 25.6612 68.8564 25.7115L71.2968 28.9606L70.1899 28.9616ZM69.5757 22.2489C69.1355 21.9459 68.6068 21.7993 68.0738 21.8324H65.6168V25.0742H68.0624C68.3398 25.0767 68.6162 25.0381 68.8824 24.9596C69.1164 24.8914 69.3361 24.7814 69.531 24.6347C69.711 24.4962 69.8568 24.318 69.9571 24.114C70.0625 23.8972 70.1152 23.6585 70.1109 23.4174C70.1216 23.194 70.0786 22.9714 69.9855 22.7682C69.8923 22.5651 69.7518 22.3873 69.5757 22.25V22.2489Z" fill="white"/>
<defs>
<linearGradient id="paint0_linear" x1="11.7193" y1="13.8538" x2="0.366897" y2="0.0875362" gradientUnits="userSpaceOnUse">
<stop/>
<stop offset="0.038" stop-color="#2E2E2E"/>
<stop offset="0.082" stop-color="#5F5F5F"/>
<stop offset="0.129" stop-color="#8A8A8A"/>
<stop offset="0.177" stop-color="#AEAEAE"/>
<stop offset="0.228" stop-color="#CBCBCB"/>
<stop offset="0.282" stop-color="#E2E2E2"/>
<stop offset="0.339" stop-color="#F2F2F2"/>
<stop offset="0.404" stop-color="#FCFCFC"/>
<stop offset="0.492" stop-color="white"/>
<stop offset="0.608" stop-color="#C9C9C9"/>
<stop offset="0.872" stop-color="#424242"/>
<stop offset="1"/>
</linearGradient>
</defs>
</svg>
