<svg width="123" height="19" viewBox="0 0 123 19" fill="none" xmlns="http://www.w3.org/2000/svg">
<path d="M122.483 0H0V18.7859H122.483V0Z" fill="url(#paint0_linear)"/>
<path d="M30.2253 10.6441C30.0651 11.0324 29.828 11.3857 29.5276 11.6835C29.2106 11.996 28.8327 12.2428 28.4164 12.4091C28.0001 12.5754 27.5539 12.6578 27.1045 12.6514C26.6385 12.6571 26.1762 12.5698 25.7457 12.3948C25.3517 12.2348 24.9944 11.999 24.6949 11.7013C24.3954 11.4037 24.1597 11.0502 24.0017 10.6618C23.6713 9.85307 23.6713 8.95056 24.0017 8.1418C24.1619 7.75349 24.3991 7.40019 24.6995 7.10237C25.0046 6.80165 25.3662 6.56168 25.7642 6.39572C26.1938 6.21778 26.6563 6.12882 27.1226 6.13445C27.5886 6.12874 28.0509 6.21604 28.4814 6.39104C28.8755 6.55083 29.2329 6.78654 29.5325 7.08422C29.832 7.38189 30.0676 7.73548 30.2253 8.12404C30.5558 8.9328 30.5558 9.83532 30.2253 10.6441ZM29.1291 8.53344C29.0276 8.26884 28.875 8.02591 28.6797 7.81791C28.4843 7.6119 28.2486 7.44658 27.9867 7.33185C27.7095 7.21364 27.4106 7.15225 27.1083 7.15145C26.806 7.15065 26.5068 7.21044 26.2289 7.32717C25.9702 7.43887 25.7374 7.60125 25.545 7.80435C25.3515 8.01112 25.2004 8.25246 25.0999 8.51521C24.8857 9.07524 24.8857 9.69239 25.0999 10.2524C25.2013 10.5171 25.3539 10.76 25.5493 10.968C25.7447 11.1741 25.9806 11.3395 26.2428 11.454C26.5196 11.5758 26.8201 11.6374 27.1235 11.6344C27.4253 11.6376 27.7242 11.5777 28.0005 11.4587C28.2591 11.3468 28.4918 11.1844 28.6845 10.9815C28.8776 10.7746 29.0286 10.5333 29.1291 10.2706C29.3439 9.71073 29.3439 9.09336 29.1291 8.53344Z" fill="#74531D"/>
<path d="M35.1035 6.24252H36.2211V11.5443H39.5994V12.5436H35.1016L35.1035 6.24252Z" fill="#74531D"/>
<path d="M49.6094 10.6306C49.4496 11.0097 49.2104 11.3517 48.9074 11.6345C48.5934 11.9229 48.2256 12.1491 47.824 12.3005C47.3831 12.4663 46.9141 12.5488 46.4419 12.5436H44.0469V6.24251H46.4428C46.9147 6.23732 47.3834 6.3183 47.825 6.48133C48.2269 6.62984 48.595 6.85456 48.9083 7.14266C49.2106 7.42433 49.4497 7.76463 49.6104 8.14189C49.9408 8.93982 49.9408 9.83268 49.6104 10.6306H49.6094ZM48.5132 8.53869C48.4105 8.2842 48.2571 8.05237 48.0619 7.85679C47.8619 7.65954 47.6221 7.50545 47.3579 7.40438C47.0646 7.29283 46.7521 7.23762 46.4376 7.24174H45.1669V11.5443H46.4366C46.7508 11.5483 47.0629 11.4947 47.357 11.3863C47.6206 11.2886 47.8605 11.1376 48.0609 10.9433C48.2568 10.7497 48.4104 10.5189 48.5123 10.2651C48.7264 9.70881 48.7264 9.09501 48.5123 8.53869H48.5132Z" fill="#74531D"/>
<path d="M18.7816 12.0416C18.3708 12.2964 17.9156 12.4747 17.439 12.5679C17.1732 12.6194 16.9029 12.6449 16.6321 12.6441C16.1648 12.6504 15.7008 12.5664 15.2666 12.3968C14.8741 12.2439 14.5182 12.0128 14.2215 11.718C13.9249 11.4233 13.6939 11.0713 13.5431 10.6844C13.3816 10.2746 13.3008 9.83848 13.3048 9.39915C13.3024 8.96832 13.385 8.5411 13.5479 8.14099C13.7037 7.75441 13.9356 7.40169 14.2304 7.10296C14.5294 6.80257 14.8856 6.56278 15.279 6.39725C15.7005 6.22038 16.155 6.13156 16.6135 6.13645C16.8698 6.13462 17.1259 6.15416 17.3789 6.19487C17.596 6.23086 17.8091 6.28657 18.0157 6.36126C18.2088 6.43213 18.3945 6.52086 18.5704 6.62626C18.7491 6.73481 18.9191 6.85652 19.079 6.99033L18.3641 7.82645C18.2445 7.72578 18.1189 7.63214 17.988 7.54603C17.8611 7.46271 17.726 7.39195 17.5848 7.33478C17.4353 7.27525 17.2804 7.23002 17.122 7.19971C16.9393 7.16567 16.7537 7.14924 16.5677 7.15065C16.2843 7.14851 16.0039 7.20838 15.747 7.32591C15.4962 7.44116 15.2718 7.60507 15.0874 7.80775C14.8978 8.01678 14.7487 8.25801 14.6475 8.51956C14.5392 8.79522 14.4848 9.08834 14.4868 9.38372C14.4838 9.69077 14.5366 9.9959 14.6427 10.2848C14.74 10.5504 14.8913 10.7938 15.0874 11.0003C15.2809 11.2026 15.5148 11.3636 15.7746 11.4733C16.0572 11.5906 16.3615 11.6489 16.6683 11.6444C16.9596 11.6468 17.2494 11.6026 17.5262 11.5135C17.7745 11.435 18.0082 11.3176 18.2182 11.1658V9.98147H16.5777V9.02011H19.3092V11.6626C19.1423 11.8006 18.9661 11.9272 18.7816 12.0416Z" fill="#74531D"/>
<path style="mix-blend-mode:multiply" opacity="0.6" d="M18.7816 12.0416C18.3708 12.2964 17.9156 12.4747 17.439 12.5679C17.1732 12.6194 16.9029 12.6449 16.6321 12.6441C16.1648 12.6504 15.7008 12.5664 15.2666 12.3968C14.8741 12.2439 14.5182 12.0128 14.2215 11.718C13.9249 11.4233 13.6939 11.0713 13.5431 10.6844C13.3816 10.2746 13.3008 9.83848 13.3048 9.39915C13.3024 8.96832 13.385 8.5411 13.5479 8.14099C13.7037 7.75441 13.9356 7.40169 14.2304 7.10296C14.5294 6.80257 14.8856 6.56278 15.279 6.39725C15.7005 6.22038 16.155 6.13156 16.6135 6.13645C16.8698 6.13462 17.1259 6.15416 17.3789 6.19487C17.596 6.23086 17.8091 6.28657 18.0157 6.36126C18.2088 6.43213 18.3945 6.52086 18.5704 6.62626C18.7491 6.73481 18.9191 6.85652 19.079 6.99033L18.3641 7.82645C18.2445 7.72578 18.1189 7.63214 17.988 7.54603C17.8611 7.46271 17.726 7.39195 17.5848 7.33478C17.4353 7.27525 17.2804 7.23002 17.122 7.19971C16.9393 7.16567 16.7537 7.14924 16.5677 7.15065C16.2843 7.14851 16.0039 7.20838 15.747 7.32591C15.4962 7.44116 15.2718 7.60507 15.0874 7.80775C14.8978 8.01678 14.7487 8.25801 14.6475 8.51956C14.5392 8.79522 14.4848 9.08834 14.4868 9.38372C14.4838 9.69077 14.5366 9.9959 14.6427 10.2848C14.74 10.5504 14.8913 10.7938 15.0874 11.0003C15.2809 11.2026 15.5148 11.3636 15.7746 11.4733C16.0572 11.5906 16.3615 11.6489 16.6683 11.6444C16.9596 11.6468 17.2494 11.6026 17.5262 11.5135C17.7745 11.435 18.0082 11.3176 18.2182 11.1658V9.98147H16.5777V9.02011H19.3092V11.6626C19.1423 11.8006 18.9661 11.9272 18.7816 12.0416Z" fill="url(#paint1_linear)"/>
<path d="M19.3096 11.6625V9.02005H16.5781V9.98143H18.2186V12.3276C18.4141 12.2466 18.6027 12.1503 18.7825 12.0397C18.9667 11.9259 19.1428 11.7999 19.3096 11.6625Z" fill="#74531D"/>
<path d="M15.7477 7.32576C16.0046 7.20823 16.285 7.14835 16.5684 7.15049C16.7544 7.14909 16.94 7.16553 17.1227 7.19957C17.2811 7.22988 17.436 7.27512 17.5855 7.33464C17.7267 7.39181 17.8618 7.46257 17.9887 7.54589C18.1196 7.632 18.2452 7.72562 18.3648 7.8263L19.0797 6.99018C18.9198 6.85636 18.7498 6.73466 18.5712 6.6261C18.3952 6.5207 18.2095 6.43198 18.0164 6.36111C17.8097 6.28635 17.5964 6.23064 17.3791 6.19472C17.1271 6.15412 16.872 6.13458 16.6166 6.1363C16.1581 6.1314 15.7036 6.22023 15.2821 6.3971C14.8887 6.56263 14.5324 6.80243 14.2335 7.10283C13.9387 7.40156 13.7068 7.75426 13.551 8.14084C13.4222 8.45772 13.3444 8.7923 13.3203 9.13259C13.8617 8.24599 14.7313 7.59867 15.7477 7.32576Z" fill="#74531D"/>
<path d="M59.5408 10.862H59.5026L57.0824 7.38265V12.649H56.3516V6.13422H57.1111L59.5313 9.68857L61.9506 6.13422H62.7101V12.6481H61.9602V7.3724L59.5408 10.862Z" fill="#74531D"/>
<path d="M71.6667 6.80607H67.6154V9.0319H71.24V9.70253H67.6154V11.982H71.7163V12.6518H66.8672V6.13455H71.6685L71.6667 6.80607Z" fill="#74531D"/>
<path d="M78.6897 10.8623H78.6515L76.2347 7.38298V12.6493H75.5039V6.13455H76.2634L78.6836 9.6889L81.1012 6.13455H81.8607V12.6484H81.1108V7.37273L78.6897 10.8623Z" fill="#74531D"/>
<path d="M89.7315 6.252C89.9767 6.31951 90.2075 6.42979 90.4128 6.57754C90.5971 6.71158 90.7461 6.88689 90.8473 7.08884C90.9501 7.29907 91.0018 7.52976 90.9985 7.76288C91.0035 7.95585 90.9741 8.14819 90.9116 8.33126C90.8553 8.48523 90.7737 8.62915 90.6701 8.75734C90.5743 8.87731 90.461 8.98271 90.3337 9.07008C90.2136 9.1524 90.0852 9.22236 89.9505 9.27885C90.1425 9.33295 90.3283 9.40635 90.5049 9.49787C90.6704 9.58248 90.8221 9.69074 90.9551 9.81912C91.0841 9.94732 91.1867 10.0986 91.2575 10.2648C91.3366 10.4539 91.3753 10.6569 91.3713 10.8613C91.3746 11.1226 91.3151 11.381 91.1975 11.6155C91.0835 11.8389 90.9163 12.0321 90.71 12.1787C90.4796 12.3398 90.221 12.4579 89.947 12.5273C89.6257 12.6112 89.2941 12.6519 88.9616 12.6483H86.0156V6.1344H88.8382C89.1402 6.13088 89.4411 6.17049 89.7315 6.252ZM89.8254 8.7403C89.9657 8.64059 90.0783 8.50787 90.1527 8.35435C90.2271 8.20083 90.261 8.03143 90.2512 7.86173C90.2568 7.71059 90.2252 7.56035 90.1593 7.42363C90.0934 7.28692 89.995 7.16772 89.8723 7.07604C89.552 6.86407 89.169 6.76247 88.7834 6.78717H86.7682V9.03856H88.7269C89.116 9.05509 89.5004 8.9507 89.8254 8.7403ZM90.186 11.6896C90.3269 11.5922 90.4405 11.4616 90.5164 11.3099C90.5923 11.1581 90.6281 10.9901 90.6205 10.8213C90.627 10.656 90.5895 10.4919 90.5116 10.3451C90.4338 10.1984 90.3182 10.0741 90.1764 9.98444C89.7761 9.76284 89.3186 9.66038 88.8599 9.68959H86.7682V11.9972H88.9929C89.4136 12.0201 89.8311 11.9125 90.186 11.6896Z" fill="#74531D"/>
<path d="M99.9497 6.80607H95.8984V9.0319H99.523V9.70253H95.8984V11.982H99.9975V12.6518H95.1484V6.13455H99.9497V6.80607Z" fill="#74531D"/>
<path d="M108.357 12.6492L106.431 10.1183H104.533V12.6492H103.785V6.13446H106.642C106.978 6.13012 107.312 6.17727 107.633 6.27422C107.908 6.35733 108.164 6.49188 108.387 6.67046C108.593 6.83697 108.759 7.04662 108.871 7.28402C108.989 7.53376 109.048 7.80589 109.045 8.0808C109.05 8.33038 109.004 8.5784 108.912 8.8111C108.827 9.02025 108.7 9.21036 108.538 9.37009C108.37 9.53248 108.176 9.66616 107.963 9.76551C107.735 9.873 107.492 9.94844 107.242 9.98962L109.283 12.6483L108.357 12.6492ZM107.843 7.1562C107.475 6.90823 107.033 6.78823 106.588 6.81534H104.533V9.4681H106.578C106.81 9.47014 107.041 9.43854 107.264 9.37435C107.459 9.31854 107.643 9.22848 107.806 9.1085C107.957 8.99512 108.078 8.84934 108.162 8.68242C108.25 8.50499 108.295 8.30964 108.291 8.11232C108.3 7.92958 108.264 7.74739 108.186 7.58113C108.108 7.41488 107.991 7.26944 107.843 7.15706V7.1562Z" fill="#74531D"/>
<defs>
<linearGradient id="paint0_linear" x1="6.2611" y1="-1.72524" x2="12.2407" y2="42.9383" gradientUnits="userSpaceOnUse">
<stop stop-color="#B6904A"/>
<stop offset="0.153" stop-color="#C29F59"/>
<stop offset="0.431" stop-color="#E1C680"/>
<stop offset="0.539" stop-color="#DCC077"/>
<stop offset="0.706" stop-color="#D1B061"/>
<stop offset="0.91" stop-color="#BF963D"/>
<stop offset="1" stop-color="#B68A2C"/>
</linearGradient>
<linearGradient id="paint1_linear" x1="18.6787" y1="12.3515" x2="13.6057" y2="6.06606" gradientUnits="userSpaceOnUse">
<stop/>
<stop offset="0.038" stop-color="#2E2E2E"/>
<stop offset="0.082" stop-color="#5F5F5F"/>
<stop offset="0.129" stop-color="#8A8A8A"/>
<stop offset="0.177" stop-color="#AEAEAE"/>
<stop offset="0.228" stop-color="#CBCBCB"/>
<stop offset="0.282" stop-color="#E2E2E2"/>
<stop offset="0.339" stop-color="#F2F2F2"/>
<stop offset="0.404" stop-color="#FCFCFC"/>
<stop offset="0.492" stop-color="white"/>
<stop offset="0.608" stop-color="#C9C9C9"/>
<stop offset="0.872" stop-color="#424242"/>
<stop offset="1"/>
</linearGradient>
</defs>
</svg>
