<svg width="12" height="11" viewBox="0 0 12 11" fill="none" xmlns="http://www.w3.org/2000/svg">
<path d="M11.5249 0.000557267L0.422933 0.661625C0.335915 0.666799 0.252272 0.697033 0.182076 0.748687C0.111881 0.80034 0.0581248 0.871212 0.0272812 0.952767C-0.00149484 1.03183 -0.00765189 1.11738 0.00950224 1.19979C0.0266564 1.28221 0.0664416 1.35823 0.124385 1.41931L3.72039 4.97162L4.97633 9.85929C4.99455 9.92771 5.02856 9.99092 5.07562 10.0438C5.12268 10.0967 5.18148 10.1379 5.24729 10.1639C5.31311 10.19 5.38409 10.2002 5.45455 10.1938C5.525 10.1874 5.59296 10.1646 5.65295 10.1271C5.71402 10.0914 5.76584 10.0418 5.80423 9.9823L11.9277 0.698236C11.9729 0.628321 11.9978 0.547278 11.9999 0.464032C12.0019 0.380787 11.981 0.298568 11.9393 0.22643C11.8977 0.154292 11.8369 0.0950339 11.7638 0.0551809C11.6907 0.0153279 11.608 -0.00357406 11.5249 0.000557267ZM5.60576 8.64404L4.6357 4.96577L7.8611 3.10359C8.07757 2.97861 8.15173 2.70181 8.02676 2.48534C7.90178 2.26887 7.62498 2.1947 7.40851 2.31968L4.18311 4.18186L1.48267 1.50263L10.6732 0.957406L5.60576 8.64404Z" fill="#007AD0"/>
</svg>
