<svg width="120" height="19" viewBox="0 0 120 19" fill="none" xmlns="http://www.w3.org/2000/svg">
<path d="M120 0H0V18.7859H120V0Z" fill="url(#paint0_linear)"/>
<path d="M19.651 6.22504V12.566H18.5469V6.22504H19.651Z" fill="white"/>
<path d="M34.2587 6.22504H35.4636L32.8301 12.6112H31.8527L29.2188 6.22504H30.45L32.3596 11.0984L34.2587 6.22504Z" fill="white"/>
<path d="M50.5245 12.5659L48.963 10.3558H47.565V12.5659H46.4609V6.22497H49.2871C49.6196 6.22115 49.9508 6.26886 50.2687 6.3664C50.5402 6.44845 50.7925 6.58388 51.0111 6.76478C51.2133 6.93728 51.3729 7.15431 51.4774 7.39887C51.6754 7.89349 51.6921 8.4423 51.5245 8.94805C51.4533 9.14892 51.3478 9.33588 51.2127 9.50058C51.0781 9.66213 50.9175 9.79997 50.7374 9.90838C50.5465 10.0229 50.3403 10.1099 50.1251 10.1667L51.8354 12.5669L50.5245 12.5659ZM50.1609 7.49882C49.8759 7.30372 49.5341 7.20932 49.1896 7.23057H47.5646V9.36858H49.199C49.541 9.38673 49.8784 9.28355 50.1519 9.07722C50.2676 8.98333 50.3598 8.86376 50.4213 8.72801C50.4827 8.59225 50.5118 8.44403 50.5061 8.29509C50.5161 8.14443 50.49 7.99357 50.4299 7.85507C50.3699 7.71656 50.2776 7.59442 50.1609 7.49882Z" fill="white"/>
<path d="M11.7618 8.206C11.8151 8.30926 11.8947 8.39658 11.9926 8.45916C12.1358 8.55278 12.2913 8.62593 12.4547 8.6765C12.651 8.74313 12.9003 8.81243 13.2027 8.88441C13.5029 8.95951 13.7979 9.054 14.0859 9.16728C14.3184 9.25616 14.5344 9.38366 14.7246 9.54443C14.889 9.6862 15.0205 9.86222 15.1099 10.0602C15.202 10.279 15.2467 10.5149 15.2413 10.7523C15.2462 11.0297 15.1896 11.3047 15.0755 11.5575C14.9681 11.7885 14.8103 11.9924 14.6139 12.1544C14.4039 12.324 14.1623 12.4502 13.9031 12.5254C13.6069 12.6124 13.2994 12.655 12.9907 12.6517C12.5127 12.6535 12.0382 12.5693 11.5899 12.4033C11.132 12.2302 10.7116 11.9706 10.3516 11.6386L11.0204 10.8428C11.2995 11.0909 11.613 11.2974 11.9512 11.4557C12.2875 11.6022 12.6513 11.6747 13.018 11.6683C13.3066 11.6836 13.5926 11.6077 13.8358 11.4514C13.9317 11.3868 14.0097 11.299 14.0627 11.1962C14.1156 11.0933 14.1417 10.9787 14.1386 10.8631C14.1403 10.7576 14.1202 10.653 14.0797 10.5557C14.0312 10.4544 13.956 10.3683 13.8621 10.3068C13.7273 10.2168 13.5811 10.1453 13.4274 10.0941C13.1908 10.0126 12.9503 9.94324 12.7067 9.88623C12.4011 9.81736 12.1 9.72982 11.8052 9.62411C11.5669 9.54052 11.3441 9.41819 11.1457 9.26203C10.9707 9.12135 10.831 8.94165 10.7378 8.73731C10.6375 8.49999 10.5893 8.24388 10.5965 7.9863C10.593 7.7259 10.6482 7.46807 10.758 7.23199C10.8635 7.00861 11.0146 6.80991 11.2018 6.64881C11.4008 6.47911 11.6318 6.35089 11.881 6.27166C12.161 6.18195 12.4536 6.13769 12.7477 6.14059C13.1737 6.13434 13.5975 6.20329 13.9997 6.34426C14.3773 6.48415 14.7297 6.68427 15.0435 6.93686L14.4467 7.77792C14.1822 7.58099 13.8938 7.41847 13.5885 7.29423C13.3154 7.18457 13.024 7.12777 12.7298 7.12686C12.4586 7.11006 12.1901 7.18842 11.9705 7.34844C11.8865 7.41077 11.8183 7.49185 11.7712 7.58524C11.7241 7.67863 11.6994 7.78174 11.6992 7.88635C11.6968 7.99618 11.7182 8.10522 11.7618 8.206Z" fill="white"/>
<path style="mix-blend-mode:multiply" opacity="0.65" d="M11.7618 8.206C11.8151 8.30926 11.8947 8.39658 11.9926 8.45916C12.1358 8.55278 12.2913 8.62593 12.4547 8.6765C12.651 8.74313 12.9003 8.81243 13.2027 8.88441C13.5029 8.95951 13.7979 9.054 14.0859 9.16728C14.3184 9.25616 14.5344 9.38366 14.7246 9.54443C14.889 9.6862 15.0205 9.86222 15.1099 10.0602C15.202 10.279 15.2467 10.5149 15.2413 10.7523C15.2462 11.0297 15.1896 11.3047 15.0755 11.5575C14.9681 11.7885 14.8103 11.9924 14.6139 12.1544C14.4039 12.324 14.1623 12.4502 13.9031 12.5254C13.6069 12.6124 13.2994 12.655 12.9907 12.6517C12.5127 12.6535 12.0382 12.5693 11.5899 12.4033C11.132 12.2302 10.7116 11.9706 10.3516 11.6386L11.0204 10.8428C11.2995 11.0909 11.613 11.2974 11.9512 11.4557C12.2875 11.6022 12.6513 11.6747 13.018 11.6683C13.3066 11.6836 13.5926 11.6077 13.8358 11.4514C13.9317 11.3868 14.0097 11.299 14.0627 11.1962C14.1156 11.0933 14.1417 10.9787 14.1386 10.8631C14.1403 10.7576 14.1202 10.653 14.0797 10.5557C14.0312 10.4544 13.956 10.3683 13.8621 10.3068C13.7273 10.2168 13.5811 10.1453 13.4274 10.0941C13.1908 10.0126 12.9503 9.94324 12.7067 9.88623C12.4011 9.81736 12.1 9.72982 11.8052 9.62411C11.5669 9.54052 11.3441 9.41819 11.1457 9.26203C10.9707 9.12135 10.831 8.94165 10.7378 8.73731C10.6375 8.49999 10.5893 8.24388 10.5965 7.9863C10.593 7.7259 10.6482 7.46807 10.758 7.23199C10.8635 7.00861 11.0146 6.80991 11.2018 6.64881C11.4008 6.47911 11.6318 6.35089 11.881 6.27166C12.161 6.18195 12.4536 6.13769 12.7477 6.14059C13.1737 6.13434 13.5975 6.20329 13.9997 6.34426C14.3773 6.48415 14.7297 6.68427 15.0435 6.93686L14.4467 7.77792C14.1822 7.58099 13.8938 7.41847 13.5885 7.29423C13.3154 7.18457 13.024 7.12777 12.7298 7.12686C12.4586 7.11006 12.1901 7.18842 11.9705 7.34844C11.8865 7.41077 11.8183 7.49185 11.7712 7.58524C11.7241 7.67863 11.6994 7.78174 11.6992 7.88635C11.6968 7.99618 11.7182 8.10522 11.7618 8.206Z" fill="url(#paint1_linear)"/>
<path d="M12.2434 7.1958C12.3994 7.14382 12.5629 7.11848 12.7272 7.12085C13.0214 7.12176 13.3128 7.17856 13.5859 7.28821C13.8912 7.41246 14.1796 7.57499 14.4441 7.77192L15.0409 6.93085C14.7272 6.67825 14.3747 6.47814 13.9971 6.33824C13.5949 6.19727 13.1711 6.12833 12.7451 6.13458C12.4511 6.13168 12.1585 6.17594 11.8784 6.26564C11.6292 6.34488 11.3983 6.4731 11.1992 6.6428C11.0121 6.8039 10.8609 7.0026 10.7555 7.22597C10.6456 7.46205 10.5904 7.71989 10.5939 7.98029C10.5942 8.08502 10.6017 8.1896 10.6161 8.29333C10.7931 8.00451 11.03 7.75707 11.3107 7.56773C11.5915 7.37839 11.9095 7.25156 12.2434 7.1958Z" fill="white"/>
<path d="M11.9512 11.4492C11.613 11.2909 11.2995 11.0844 11.0204 10.8363L10.3516 11.6321C10.7116 11.9641 11.132 12.2237 11.5899 12.3968C12.0382 12.5628 12.5127 12.647 12.9907 12.6452C13.2994 12.6485 13.6069 12.6059 13.9031 12.5189C14.1623 12.4437 14.4039 12.3175 14.6139 12.1479C14.9297 11.8893 15.1407 11.5244 15.2074 11.1215C14.7835 11.5746 13.7618 11.6481 13.1754 11.6505C13.124 11.6543 13.0731 11.6594 13.018 11.6594C12.6515 11.6666 12.2877 11.5949 11.9512 11.4492Z" fill="white"/>
<path d="M11.9512 11.4492C11.613 11.2909 11.2995 11.0844 11.0204 10.8363L10.3516 11.6321C10.7116 11.9641 11.132 12.2237 11.5899 12.3968C12.0382 12.5628 12.5127 12.647 12.9907 12.6452C13.2994 12.6485 13.6069 12.6059 13.9031 12.5189C14.1623 12.4437 14.4039 12.3175 14.6139 12.1479C14.9297 11.8893 15.1407 11.5244 15.2074 11.1215C14.7835 11.5746 13.7618 11.6481 13.1754 11.6505C13.124 11.6543 13.0731 11.6594 13.018 11.6594C12.6515 11.6666 12.2877 11.5949 11.9512 11.4492Z" fill="white"/>
<path d="M23.2773 6.22504H24.3814V11.5627H27.7121V12.5679H23.2773V6.22504Z" fill="white"/>
<path d="M30.4495 6.22504H29.2188L31.8527 12.6112H32.8301L32.8937 12.4576L32.3596 11.0984L30.4495 6.22504Z" fill="white"/>
<path d="M43.1608 7.23052H39.5767V8.86124H42.7538V9.86542H39.5767V11.5626H43.2036V12.5678H38.4727V6.22681H43.1608V7.23052Z" fill="white"/>
<path d="M61.0144 10.862H60.9778L58.6067 7.38265V12.649H57.8906V6.13422H58.6347L61.0059 9.68857L63.3762 6.13422H64.1203V12.6481H63.3855V7.3724L61.0144 10.862Z" fill="white"/>
<path d="M72.8954 6.80607H68.9261V9.0319H72.4773V9.70253H68.9261V11.982H72.9422V12.6518H68.1914V6.13455H72.8954V6.80607Z" fill="white"/>
<path d="M79.777 10.8623H79.7395L77.3684 7.38298V12.6493H76.6523V6.13455H77.3965L79.7676 9.6889L82.1379 6.13455H82.882V12.6484H82.1473V7.37273L79.777 10.8623Z" fill="white"/>
<path d="M90.5937 6.252C90.8339 6.31951 91.06 6.42979 91.2612 6.57754C91.4418 6.71158 91.5877 6.88689 91.6869 7.08884C91.7876 7.29907 91.8382 7.52976 91.835 7.76288C91.8399 7.95585 91.8111 8.14819 91.7499 8.33126C91.6947 8.48523 91.6147 8.62915 91.5132 8.75734C91.4194 8.87731 91.3084 8.98271 91.1837 9.07008C91.066 9.1524 90.9402 9.22236 90.8082 9.27885C90.9963 9.33294 91.1784 9.40635 91.3514 9.49787C91.5135 9.58248 91.6622 9.69074 91.7924 9.81912C91.9188 9.94732 92.0194 10.0986 92.0887 10.2648C92.1662 10.4539 92.2042 10.6569 92.2003 10.8613C92.2035 11.1226 92.1451 11.381 92.03 11.6155C91.9182 11.8388 91.7544 12.032 91.5523 12.1787C91.3266 12.3398 91.0732 12.4579 90.8048 12.5273C90.49 12.6112 90.1652 12.6519 89.8393 12.6483H86.9531V6.1344H89.7184C90.0143 6.13088 90.3092 6.17049 90.5937 6.252ZM90.6856 8.7403C90.8232 8.64059 90.9334 8.50787 91.0063 8.35435C91.0792 8.20083 91.1124 8.03143 91.1028 7.86173C91.1083 7.71059 91.0774 7.56035 91.0128 7.42363C90.9482 7.28692 90.8518 7.16772 90.7316 7.07604C90.4178 6.86407 90.0426 6.76247 89.6648 6.78717H87.6904V9.03856H89.6095C89.9901 9.05472 90.366 8.95035 90.6839 8.7403H90.6856ZM91.039 11.6896C91.1769 11.5922 91.2883 11.4616 91.3626 11.3099C91.437 11.1581 91.4721 10.9901 91.4646 10.8213C91.471 10.656 91.4343 10.4919 91.358 10.3451C91.2817 10.1984 91.1685 10.0741 91.0296 9.98444C90.6374 9.76284 90.1892 9.66038 89.7397 9.68959H87.6904V11.9972H89.87C90.2823 12.0201 90.6912 11.9125 91.039 11.6896Z" fill="white"/>
<path d="M100.602 6.80607H96.6332V9.0319H100.184V9.70253H96.6332V11.982H100.649V12.6518H95.8984V6.13455H100.602V6.80607Z" fill="white"/>
<path d="M108.84 12.6492L106.954 10.1183H105.094V12.6492H104.359V6.13446H107.158C107.487 6.13012 107.815 6.17727 108.129 6.27422C108.399 6.35733 108.65 6.49188 108.868 6.67046C109.07 6.83697 109.232 7.04662 109.343 7.28402C109.457 7.53376 109.516 7.80589 109.513 8.0808C109.517 8.33038 109.473 8.5784 109.383 8.8111C109.299 9.02025 109.174 9.21036 109.016 9.37009C108.852 9.53248 108.661 9.66616 108.453 9.76551C108.229 9.87301 107.991 9.94845 107.746 9.98962L109.745 12.6483L108.84 12.6492ZM108.337 7.1562C107.977 6.90823 107.543 6.78823 107.107 6.81534H105.094V9.4681H107.097C107.325 9.47014 107.551 9.43854 107.769 9.37435C107.961 9.31854 108.141 9.22848 108.3 9.1085C108.448 8.99512 108.567 8.84934 108.65 8.68242C108.736 8.50499 108.779 8.30964 108.776 8.11232C108.784 7.92957 108.749 7.74737 108.673 7.58111C108.597 7.41484 108.481 7.26939 108.337 7.15706V7.1562Z" fill="white"/>
<defs>
<linearGradient id="paint0_linear" x1="2.30032" y1="2.8754" x2="12.7608" y2="49.9867" gradientUnits="userSpaceOnUse">
<stop stop-color="#6C7477"/>
<stop offset="0.014" stop-color="#767D80"/>
<stop offset="0.055" stop-color="#8F9497"/>
<stop offset="0.1" stop-color="#A2A6A9"/>
<stop offset="0.153" stop-color="#B0B3B5"/>
<stop offset="0.219" stop-color="#B8BABC"/>
<stop offset="0.339" stop-color="#BBBDBF"/>
<stop offset="0.474" stop-color="#ADB0B2"/>
<stop offset="0.726" stop-color="#8A8F91"/>
<stop offset="1" stop-color="#5D6567"/>
</linearGradient>
<linearGradient id="paint1_linear" x1="15.3298" y1="11.9226" x2="9.44949" y2="8.60081" gradientUnits="userSpaceOnUse">
<stop/>
<stop offset="0.038" stop-color="#2E2E2E"/>
<stop offset="0.082" stop-color="#5F5F5F"/>
<stop offset="0.129" stop-color="#8A8A8A"/>
<stop offset="0.177" stop-color="#AEAEAE"/>
<stop offset="0.228" stop-color="#CBCBCB"/>
<stop offset="0.282" stop-color="#E2E2E2"/>
<stop offset="0.339" stop-color="#F2F2F2"/>
<stop offset="0.404" stop-color="#FCFCFC"/>
<stop offset="0.492" stop-color="white"/>
<stop offset="0.608" stop-color="#C9C9C9"/>
<stop offset="0.872" stop-color="#424242"/>
<stop offset="1"/>
</linearGradient>
</defs>
</svg>
