<svg width="120" height="19" viewBox="0 0 120 19" fill="none" xmlns="http://www.w3.org/2000/svg">
<path d="M120 0H0V18.7859H120V0Z" fill="url(#paint0_linear)"/>
<path d="M33.5511 11.9985C33.3729 12.1343 33.1817 12.252 32.9801 12.3498C32.7669 12.4519 32.542 12.5275 32.3104 12.5746C32.0454 12.6279 31.7757 12.6537 31.5054 12.6515C31.067 12.656 30.6324 12.5701 30.2287 12.399C29.8496 12.2385 29.5059 12.0046 29.2173 11.7108C28.9288 11.4144 28.7012 11.0643 28.5471 10.6803C28.2253 9.86214 28.2238 8.95261 28.5429 8.13341C28.6954 7.74489 28.9238 7.39074 29.2148 7.09175C29.5058 6.79275 29.8535 6.55494 30.2376 6.39224C30.6528 6.21701 31.0998 6.12961 31.5503 6.13554C31.8143 6.13347 32.0779 6.15763 32.3371 6.20767C32.5609 6.2519 32.7794 6.31974 32.989 6.41004C33.182 6.49445 33.3658 6.59852 33.5375 6.72061C33.7057 6.84079 33.8649 6.97308 34.0139 7.11643L33.304 7.93526C33.0646 7.71034 32.7953 7.5196 32.5037 7.36846C32.2047 7.22066 31.8748 7.14662 31.5414 7.15252C31.2548 7.14975 30.9709 7.2097 30.7098 7.32818C30.4599 7.4414 30.2352 7.60353 30.049 7.80503C29.8605 8.01011 29.7139 8.25009 29.6175 8.51144C29.5138 8.79075 29.4619 9.08664 29.4644 9.3846C29.4622 9.6839 29.514 9.98115 29.6175 10.262C29.7137 10.5261 29.8603 10.769 30.049 10.9773C30.2343 11.181 30.4591 11.3449 30.7098 11.4588C30.9709 11.5773 31.2548 11.6373 31.5414 11.6345C31.8842 11.6436 32.2239 11.5678 32.5304 11.4139C32.828 11.2508 33.1032 11.0495 33.3489 10.8152L34.0589 11.5352C33.9031 11.7038 33.7332 11.8588 33.5511 11.9985Z" fill="white"/>
<path d="M41.3231 10.6441C41.1663 11.0324 40.934 11.3857 40.6398 11.6836C40.3293 11.9961 39.9591 12.2428 39.5513 12.4091C39.1435 12.5754 38.7064 12.6578 38.2661 12.6514C37.8097 12.657 37.357 12.5697 36.9355 12.3947C36.5494 12.2347 36.1993 11.9989 35.9059 11.7012C35.6124 11.4035 35.3815 11.05 35.2268 10.6615C34.9036 9.85257 34.9036 8.95022 35.2268 8.14131C35.3839 7.75301 35.6163 7.39973 35.9106 7.10185C36.221 6.78921 36.5911 6.54242 36.999 6.37622C37.4069 6.21001 37.844 6.12782 38.2843 6.13454C38.7406 6.1287 39.1934 6.21605 39.6149 6.39124C40.0009 6.55115 40.351 6.78691 40.6444 7.08461C40.9378 7.38232 41.1686 7.7359 41.3231 8.12444C41.647 8.93306 41.647 9.83552 41.3231 10.6441ZM40.2467 8.53384C40.147 8.2694 39.9975 8.02658 39.8063 7.81856C39.6149 7.61254 39.3839 7.44731 39.1272 7.33278C38.856 7.21084 38.5615 7.14932 38.2642 7.15245C37.9687 7.14913 37.6759 7.20902 37.4054 7.32811C37.1521 7.43987 36.9242 7.60212 36.7357 7.80496C36.5462 8.01176 36.3982 8.25298 36.2995 8.51557C36.0898 9.07554 36.0898 9.69256 36.2995 10.2525C36.3991 10.5173 36.5488 10.7603 36.7403 10.9683C36.9317 11.1742 37.1624 11.3394 37.419 11.4541C37.8171 11.6349 38.2617 11.6866 38.6906 11.602C39.1196 11.5173 39.5113 11.3005 39.811 10.9819C40.0001 10.7748 40.148 10.5335 40.2467 10.2708C40.4564 9.71083 40.4564 9.09381 40.2467 8.53384Z" fill="white"/>
<path d="M46.2348 10.9956H46.1988L44.2298 8.04448V12.5442H43.1328V6.24335H44.3103L46.2259 9.22212L48.141 6.24335H49.319V12.5433H48.222V8.02526L46.2348 10.9956Z" fill="white"/>
<path d="M8.8587 10.9168L7.48649 6.64846L7.35592 6.2442H6.16016L8.35513 12.5915H9.30846L9.35526 12.4477L8.85917 10.9093L8.8587 10.9168Z" fill="white"/>
<path d="M7.35547 6.24408L7.48604 6.64834L7.35547 6.24408Z" fill="#737373"/>
<path d="M10.4151 6.22266H11.3586L12.9194 10.9538L14.4344 6.24093H15.6044L13.3912 12.643H12.4276L10.8672 8.07531L9.30638 12.643H8.3465L6.13281 6.24093H7.33935L8.8543 10.9538L10.4151 6.22266Z" fill="white"/>
<path style="mix-blend-mode:multiply" opacity="0.8" d="M10.4151 6.22266H11.3586L12.9194 10.9538L14.4344 6.24093H15.6044L13.3912 12.643H12.4276L10.8672 8.07531L9.30638 12.643H8.3465L6.13281 6.24093H7.33935L8.8543 10.9538L10.4151 6.22266Z" fill="url(#paint1_linear)"/>
<path d="M8.8543 10.9535L7.47039 6.64807L7.33888 6.24054H6.13281L8.3465 12.6422H9.30825L9.35787 12.4969L8.8571 10.9455L8.8543 10.9535Z" fill="white"/>
<path d="M7.33984 6.24054L7.47134 6.64807L7.33984 6.24054Z" fill="#737373"/>
<path style="mix-blend-mode:multiply" opacity="0.8" d="M14.4329 6.24054L12.918 10.9535L13.4557 12.4524L15.6029 6.24195L14.4329 6.24054Z" fill="url(#paint2_linear)"/>
<path d="M23.1523 6.24188H24.2494V11.5431H27.5591V12.5423H23.1523V6.24188Z" fill="white"/>
<path d="M55.8211 7.23768H52.2576V8.85892H55.4163V9.85669H52.2576V11.5431H55.866V12.5427H51.1602V6.23804H55.8211V7.23768Z" fill="white"/>
<path d="M21.5633 7.23768H18.0003V8.85892H21.1584V9.85669H18.0003V11.5431H21.6082V12.5427H16.9023V6.23804H21.5633V7.23768Z" fill="white"/>
<path d="M65.2326 10.8649H65.1952L62.8253 7.3852V12.6516H62.1094V6.1344H62.8534L65.2233 9.68824L67.5941 6.1344H68.3381V12.6482H67.6V7.37157L65.2326 10.8649Z" fill="white"/>
<path d="M76.876 6.80849H72.9065V9.03145H76.458V9.70199H72.9065V11.982H76.9228V12.6517H72.1719V6.13452H76.876V6.80849Z" fill="white"/>
<path d="M83.8811 10.865H83.8436L81.4737 7.38532V12.6517H80.7578V6.13452H81.5018L83.8717 9.68837L86.2425 6.13452H86.9865V12.6483H86.2518V7.3717L83.8811 10.865Z" fill="white"/>
<path d="M94.4595 6.25392C94.6999 6.32188 94.9262 6.4324 95.1277 6.58025C95.308 6.71452 95.4539 6.88974 95.5534 7.09147C95.654 7.30168 95.7047 7.53234 95.7015 7.76542C95.7064 7.95837 95.6776 8.15071 95.6163 8.33374C95.5615 8.48766 95.4818 8.63156 95.3805 8.75976C95.2864 8.87934 95.1754 8.98464 95.0511 9.07243C94.9331 9.15433 94.8073 9.22453 94.6757 9.28204C94.8633 9.3362 95.045 9.40929 95.2179 9.50017C95.3801 9.58463 95.5287 9.69291 95.6589 9.8214C95.7858 9.94963 95.8867 10.1012 95.956 10.2678C96.0332 10.457 96.0711 10.66 96.0675 10.8643C96.0703 11.1255 96.0119 11.3837 95.8973 11.6183C95.7854 11.8416 95.6213 12.0345 95.4189 12.1807C95.1933 12.3416 94.9403 12.46 94.6723 12.53C94.3575 12.6138 94.0327 12.6545 93.7069 12.651H90.8203V6.13463H93.5861C93.8814 6.13218 94.1756 6.17237 94.4595 6.25392ZM94.5514 8.7427C94.6891 8.64317 94.7995 8.5105 94.8724 8.35696C94.9453 8.20343 94.9784 8.03396 94.9685 7.86425C94.9741 7.71321 94.9434 7.56305 94.8789 7.42635C94.8145 7.28966 94.7182 7.17044 94.5982 7.07868C94.2845 6.86674 93.9093 6.76515 93.5316 6.78985H91.5566V9.04092H93.4763C93.8571 9.05773 94.2335 8.95333 94.5514 8.7427ZM94.9047 11.6924C95.0426 11.5947 95.1537 11.464 95.2281 11.3122C95.3025 11.1604 95.3376 10.9923 95.3303 10.8234C95.3366 10.658 95.2997 10.4939 95.2233 10.3472C95.1469 10.2004 95.0335 10.0762 94.8945 9.98669C94.5026 9.7651 94.0548 9.66264 93.6057 9.69188H91.5558V12H93.735C94.1475 12.0232 94.5568 11.9156 94.9047 11.6924Z" fill="white"/>
<path d="M104.603 6.80849H100.634V9.03145H104.184V9.70199H100.634V11.982H104.649V12.6517H99.9023V6.13452H104.606L104.603 6.80849Z" fill="white"/>
<path d="M112.961 12.6516L111.073 10.1202H109.215V12.6516H108.48V6.13443H111.279C111.608 6.1301 111.935 6.17725 112.25 6.27416C112.519 6.35756 112.77 6.49176 112.99 6.66952C113.191 6.83696 113.353 7.04668 113.464 7.28382C113.579 7.53351 113.637 7.80561 113.634 8.08049C113.638 8.33004 113.594 8.57804 113.504 8.81068C113.42 9.0198 113.295 9.20989 113.137 9.36959C112.973 9.53196 112.782 9.66588 112.574 9.76581C112.35 9.87311 112.112 9.94826 111.868 9.98904L113.866 12.6482L112.961 12.6516ZM112.458 7.15859C112.097 6.91066 111.664 6.79065 111.228 6.81776H109.215V9.47014H111.219C111.446 9.47223 111.672 9.44066 111.89 9.37643C112.082 9.32098 112.262 9.23088 112.421 9.11059C112.568 8.99704 112.688 8.85134 112.771 8.68457C112.856 8.50696 112.899 8.31173 112.896 8.11456C112.905 7.93126 112.87 7.74848 112.793 7.58175C112.717 7.41502 112.601 7.26926 112.456 7.15688L112.458 7.15859Z" fill="white"/>
<defs>
<linearGradient id="paint0_linear" x1="2.54999" y1="9.57479e-07" x2="9.58865" y2="46.656" gradientUnits="userSpaceOnUse">
<stop stop-color="#00A4E4"/>
<stop offset="0.132" stop-color="#00ABE5"/>
<stop offset="0.381" stop-color="#44C7F4"/>
<stop offset="0.398" stop-color="#3FC5F3"/>
<stop offset="0.674" stop-color="#00AEE6"/>
<stop offset="1" stop-color="#00A4E4"/>
</linearGradient>
<linearGradient id="paint1_linear" x1="10.2151" y1="9.12465" x2="8.07596" y2="12.3847" gradientUnits="userSpaceOnUse">
<stop stop-color="white"/>
<stop offset="0.27" stop-color="#B3B3B3"/>
<stop offset="0.629" stop-color="#535353"/>
<stop offset="0.881" stop-color="#171717"/>
<stop offset="1"/>
</linearGradient>
<linearGradient id="paint2_linear" x1="14.4242" y1="8.19108" x2="10.7467" y2="9.84702" gradientUnits="userSpaceOnUse">
<stop stop-color="white"/>
<stop offset="0.335" stop-color="#B9B9B9"/>
<stop offset="0.647" stop-color="#808080"/>
<stop offset="0.876" stop-color="#5C5C5C"/>
<stop offset="0.999" stop-color="#4F4F4F"/>
</linearGradient>
</defs>
</svg>
