<svg width="17" height="16" viewBox="0 0 17 16" fill="none" xmlns="http://www.w3.org/2000/svg">
<path fill-rule="evenodd" clip-rule="evenodd" d="M3.89062 6.96484H5.86431V5.48413H3.89062V6.96484Z" fill="#767676"/>
<path fill-rule="evenodd" clip-rule="evenodd" d="M3.89062 9.4305H5.86431V7.95068H3.89062V9.4305Z" fill="#767676"/>
<path fill-rule="evenodd" clip-rule="evenodd" d="M3.89062 11.8971H5.86431V10.4172H3.89062V11.8971Z" fill="#767676"/>
<path fill-rule="evenodd" clip-rule="evenodd" d="M7.34375 11.8971H9.31744V10.4172H7.34375V11.8971Z" fill="#767676"/>
<path fill-rule="evenodd" clip-rule="evenodd" d="M7.34375 9.4305H9.31744V7.95068H7.34375V9.4305Z" fill="#767676"/>
<path fill-rule="evenodd" clip-rule="evenodd" d="M7.34375 6.96484H9.31744V5.48413H7.34375V6.96484Z" fill="#767676"/>
<path fill-rule="evenodd" clip-rule="evenodd" d="M10.7969 11.8971H12.7706V10.4172H10.7969V11.8971Z" fill="#767676"/>
<path fill-rule="evenodd" clip-rule="evenodd" d="M10.7969 9.4305H12.7706V7.95068H10.7969V9.4305Z" fill="#767676"/>
<path fill-rule="evenodd" clip-rule="evenodd" d="M10.7969 6.96484H12.7706V5.48413H10.7969V6.96484Z" fill="#767676"/>
<path fill-rule="evenodd" clip-rule="evenodd" d="M15.4553 13.6052C15.4553 13.8086 15.2901 13.9747 15.0867 13.9747H1.57736C1.37395 13.9747 1.20874 13.8086 1.20874 13.6052V2.70374C1.20874 2.50033 1.37395 2.33423 1.57736 2.33423H3.76512V3.64439C3.76512 3.88689 3.96142 4.0823 4.20391 4.0823C4.4464 4.0823 4.6427 3.88689 4.6427 3.64439V2.33423H7.89369V3.64439C7.89369 3.88689 8.08999 4.0823 8.3316 4.0823C8.57409 4.0823 8.77128 3.88689 8.77128 3.64439V2.33423H12.0223V3.64439C12.0223 3.88689 12.2177 4.0823 12.4602 4.0823C12.7027 4.0823 12.899 3.88689 12.899 3.64439V2.33423H15.0867C15.2901 2.33423 15.4553 2.50033 15.4553 2.70374V13.6052ZM15.0867 1.45761H12.899V0.438794C12.899 0.196303 12.7027 0 12.4602 0C12.2177 0 12.0223 0.196303 12.0223 0.438794V1.45761H8.77127V0.438794C8.77127 0.196303 8.57408 0 8.33159 0C8.08998 0 7.89368 0.196303 7.89368 0.438794V1.45761H4.6427V0.438794C4.6427 0.196303 4.44639 0 4.2039 0C3.96141 0 3.76511 0.196303 3.76511 0.438794V1.45761H1.57735C0.890739 1.45761 0.332031 2.01632 0.332031 2.70382V13.6053C0.332031 14.2928 0.890739 14.8515 1.57735 14.8515H15.0867C15.7733 14.8515 16.332 14.2928 16.332 13.6053V2.70382C16.332 2.01632 15.7733 1.45761 15.0867 1.45761Z" fill="#767676"/>
</svg>
