<svg width="17" height="16" viewBox="0 0 17 16" fill="none" xmlns="http://www.w3.org/2000/svg">
<path fill-rule="evenodd" clip-rule="evenodd" d="M14.7707 1.89726C15.7739 2.90048 16.4265 4.16149 16.6626 5.54685C16.6968 5.74036 16.5641 5.9262 16.3706 5.95554L16.3653 5.95624C16.3464 5.95878 16.329 5.96113 16.3098 5.96113C16.1372 5.96113 15.9856 5.83887 15.957 5.66352C15.7467 4.42696 15.1634 3.29869 14.2663 2.40236C13.3693 1.50743 12.241 0.920595 11.0038 0.711708C10.8082 0.676778 10.6775 0.49374 10.7097 0.297428C10.7439 0.103212 10.9276 -0.028827 11.1211 0.00540529C12.5065 0.241538 13.7668 0.894048 14.7707 1.89726ZM12.7296 3.94122C12.2245 3.43682 11.5936 3.10777 10.8978 2.9911C10.7015 2.95967 10.5743 2.77104 10.6086 2.57682C10.6428 2.38331 10.8258 2.25336 11.0228 2.2848C11.864 2.42802 12.6311 2.82693 13.2389 3.43403C13.8467 4.04183 14.2449 4.80961 14.3881 5.65074C14.4202 5.84705 14.2896 6.03289 14.0933 6.06433L14.088 6.06503C14.0691 6.06757 14.0517 6.06991 14.0325 6.06991C13.8599 6.06991 13.7083 5.94766 13.679 5.7723C13.5602 5.07718 13.2333 4.44563 12.7296 3.94122ZM12.2525 15.8552C13.5624 15.8552 14.5203 15.4868 15.3471 14.5944C15.3707 14.5669 15.3942 14.5413 15.4169 14.5167C15.4415 14.49 15.465 14.4644 15.4863 14.4388C15.9775 13.9067 16.215 13.3663 16.215 12.8669C16.215 12.3348 15.912 11.8436 15.2898 11.4178L12.9156 9.78046C12.2443 9.3138 11.4502 9.24012 10.7379 9.93601L10.1403 10.5255C9.96014 10.7056 9.76365 10.7383 9.5426 10.6155C9.14145 10.3699 8.2327 9.62491 7.53681 8.92902C6.77542 8.16763 6.23508 7.55361 5.90761 6.98053C5.7848 6.75948 5.81755 6.56299 5.99766 6.38288L6.58712 5.78523C7.28301 5.07297 7.20933 4.27884 6.74267 3.60751L5.10529 1.2333C4.67957 0.611093 4.18835 0.32455 3.6562 0.308176C3.1568 0.299989 2.60827 0.545597 2.08431 1.03681C2.05873 1.05813 2.03314 1.08167 2.0064 1.10627C1.9818 1.12891 1.95622 1.15245 1.92876 1.17599C1.04457 1.99468 0.667969 2.94437 0.667969 4.2379C0.667969 6.53843 2.15799 9.30562 4.68775 11.8354C7.20933 14.3488 9.96833 15.8552 12.2525 15.8552ZM5.41626 11.1642C7.56124 13.3174 10.1729 14.8893 12.2605 14.8647C13.1857 14.8565 13.9962 14.5454 14.6102 13.8823C14.6342 13.8463 14.6538 13.8235 14.6786 13.7946C14.6877 13.784 14.6975 13.7726 14.7084 13.7595C14.9868 13.4565 15.126 13.1536 15.126 12.8835C15.126 12.6215 15.0195 12.4004 14.7494 12.2285L12.3833 10.6402C12.0804 10.4356 11.7366 10.4028 11.4009 10.7385L10.7378 11.4098C10.2466 11.901 9.61616 11.8847 9.12495 11.549C8.55186 11.156 7.61036 10.3537 6.86535 9.6005C6.12853 8.85549 5.36714 7.9713 4.97417 7.39821C4.63851 6.907 4.62213 6.27661 5.11335 5.78539L5.78468 5.12225C6.12034 4.78658 6.08759 4.44273 5.88292 4.13982L4.29465 1.77379C4.12273 1.50362 3.90168 1.39719 3.6397 1.39719C3.37772 1.39719 3.06661 1.53637 2.7637 1.81473C2.75005 1.82564 2.73732 1.83656 2.72458 1.84748C2.69911 1.86931 2.67364 1.89114 2.64089 1.91297C1.97775 2.52699 1.66665 3.32931 1.65846 4.23806C1.6339 6.33391 3.25491 9.01104 5.41626 11.1642Z" fill="#767676"/>
</svg>
