<svg width="124" height="68" viewBox="0 0 124 68" fill="none" xmlns="http://www.w3.org/2000/svg">
<path d="M108 63.0264C112.418 63.0264 116 59.4446 116 55.0264V40H108V63.0264Z" fill="#D6D6D6"/>
<g filter="url(#filter0_d)">
<path d="M116 56C116 56 115.238 48.9899 104.563 48.9899C96.1427 48.9899 40.9179 48.9899 17.9716 48.9899C12.4487 48.9899 8 44.5128 8 38.9899V4H106C111.523 4 116 8.46854 116 13.9914C116 24.3045 116 39.503 116 43.9929C116 50.989 116 56 116 56Z" fill="white"/>
</g>
<path d="M52.886 22.238C51.5327 22.238 50.52 21.944 49.848 21.356C49.176 20.768 48.84 19.942 48.84 18.878V14.902C48.84 13.838 49.176 13.0073 49.848 12.41C50.5293 11.8127 51.5467 11.514 52.9 11.514C54.244 11.514 55.252 11.8127 55.924 12.41C56.6053 13.0073 56.946 13.8427 56.946 14.916V18.878C56.946 19.9233 56.6053 20.7447 55.924 21.342C55.2427 21.9393 54.23 22.238 52.886 22.238ZM52.9 20.628C53.6653 20.628 54.202 20.4647 54.51 20.138C54.8273 19.8113 54.986 19.3493 54.986 18.752V15.014C54.986 14.4073 54.8273 13.9407 54.51 13.614C54.202 13.2873 53.6653 13.124 52.9 13.124C52.116 13.124 51.57 13.2873 51.262 13.614C50.954 13.9313 50.8 14.398 50.8 15.014V18.752C50.8 19.3587 50.954 19.8253 51.262 20.152C51.57 20.4693 52.116 20.628 52.9 20.628ZM65.3071 21.916C65.3071 21.9813 65.2184 22.0187 65.0411 22.028C64.8637 22.0467 64.6351 22.056 64.3551 22.056C64.0751 22.056 63.8464 22.0467 63.6691 22.028C63.4917 22.0187 63.4031 21.9813 63.4031 21.916V17.044C63.4031 16.2787 63.0857 15.896 62.4511 15.896C62.1244 15.896 61.7837 16.0173 61.4291 16.26C61.0837 16.4933 60.8224 16.7733 60.6451 17.1V21.916C60.6451 21.9813 60.5564 22.0187 60.3791 22.028C60.2017 22.0467 59.9731 22.056 59.6931 22.056C59.4224 22.056 59.1937 22.0467 59.0071 22.028C58.8297 22.0187 58.7411 21.9813 58.7411 21.916V14.496C58.7411 14.4027 59.0584 14.356 59.6931 14.356C60.2904 14.356 60.5891 14.4027 60.5891 14.496V15.294C60.8597 14.986 61.2097 14.7247 61.6391 14.51C62.0684 14.2953 62.5397 14.188 63.0531 14.188C63.7531 14.188 64.3037 14.412 64.7051 14.86C65.1064 15.2987 65.3071 15.8773 65.3071 16.596V21.916ZM69.3189 22C68.6003 22 68.0543 21.818 67.6809 21.454C67.3076 21.09 67.1209 20.5673 67.1209 19.886V11.654C67.1209 11.5887 67.2096 11.5513 67.3869 11.542C67.5736 11.5233 67.8023 11.514 68.0729 11.514C68.3529 11.514 68.5816 11.5233 68.7589 11.542C68.9363 11.5513 69.0249 11.5887 69.0249 11.654V19.676C69.0249 19.9 69.0809 20.068 69.1929 20.18C69.3143 20.2827 69.5009 20.334 69.7529 20.334H70.0189C70.1496 20.334 70.2336 20.3853 70.2709 20.488C70.3083 20.5813 70.3269 20.8053 70.3269 21.16C70.3269 21.412 70.3176 21.5987 70.2989 21.72C70.2803 21.832 70.2523 21.9067 70.2149 21.944C70.1776 21.9813 70.1123 22 70.0189 22H69.3189ZM74.4056 24.632C74.3683 24.7253 74.051 24.772 73.4536 24.772C72.8096 24.772 72.5016 24.7253 72.5296 24.632L73.6216 21.748L70.8356 14.51C70.8076 14.454 70.8823 14.4167 71.0596 14.398C71.2463 14.3793 71.5216 14.37 71.8856 14.37C72.231 14.37 72.483 14.3793 72.6416 14.398C72.8003 14.4167 72.889 14.454 72.9076 14.51L74.6716 19.788L76.3376 14.51C76.3563 14.4633 76.4636 14.4307 76.6596 14.412C76.865 14.384 77.0843 14.37 77.3176 14.37C78.0363 14.37 78.377 14.4167 78.3396 14.51L74.4056 24.632Z" fill="#FFFC88"/>
<path d="M49.848 21.356L49.1895 22.1086H49.1895L49.848 21.356ZM49.848 12.41L49.1888 11.658L49.1836 11.6626L49.848 12.41ZM55.924 12.41L55.2596 13.1574L55.2648 13.1619L55.924 12.41ZM55.924 21.342L56.5832 22.0939L55.924 21.342ZM54.51 20.138L53.7927 19.4412L53.7875 19.4466L53.7824 19.452L54.51 20.138ZM54.51 13.614L53.7824 14.3L53.7875 14.3054L53.7927 14.3108L54.51 13.614ZM51.262 13.614L51.9796 14.3105L51.9846 14.3053L51.9896 14.3L51.262 13.614ZM51.262 20.152L50.5344 20.838L50.5394 20.8433L50.5444 20.8485L51.262 20.152ZM52.886 21.238C51.6543 21.238 50.9223 20.9673 50.5065 20.6034L49.1895 22.1086C50.1177 22.9207 51.411 23.238 52.886 23.238V21.238ZM50.5065 20.6034C50.0933 20.2419 49.84 19.7142 49.84 18.878H47.84C47.84 20.1698 48.2587 21.2941 49.1895 22.1086L50.5065 20.6034ZM49.84 18.878V14.902H47.84V18.878H49.84ZM49.84 14.902C49.84 14.0662 50.0933 13.5299 50.5124 13.1574L49.1836 11.6626C48.2587 12.4848 47.84 13.6098 47.84 14.902H49.84ZM50.5072 13.1619C50.9345 12.7874 51.673 12.514 52.9 12.514V10.514C51.4204 10.514 50.1242 10.838 49.1888 11.6581L50.5072 13.1619ZM52.9 12.514C54.117 12.514 54.8429 12.787 55.2596 13.1574L56.5884 11.6626C55.6611 10.8383 54.371 10.514 52.9 10.514V12.514ZM55.2648 13.1619C55.6892 13.534 55.946 14.0723 55.946 14.916H57.946C57.946 13.613 57.5215 12.4806 56.5832 11.6581L55.2648 13.1619ZM55.946 14.916V18.878H57.946V14.916H55.946ZM55.946 18.878C55.946 19.6843 55.6952 20.2127 55.2648 20.5901L56.5832 22.0939C57.5154 21.2767 57.946 20.1624 57.946 18.878H55.946ZM55.2648 20.5901C54.8365 20.9656 54.1016 21.238 52.886 21.238V23.238C54.3584 23.238 55.6489 22.9131 56.5832 22.0939L55.2648 20.5901ZM52.9 21.628C53.7574 21.628 54.6438 21.4538 55.2376 20.824L53.7824 19.452C53.7602 19.4755 53.5732 19.628 52.9 19.628V21.628ZM55.2273 20.8348C55.777 20.2689 55.986 19.5257 55.986 18.752H53.986C53.986 19.173 53.8777 19.3538 53.7927 19.4412L55.2273 20.8348ZM55.986 18.752V15.014H53.986V18.752H55.986ZM55.986 15.014C55.986 14.236 55.7796 13.4858 55.2273 12.9172L53.7927 14.3108C53.875 14.3955 53.986 14.5786 53.986 15.014H55.986ZM55.2376 12.928C54.6438 12.2982 53.7574 12.124 52.9 12.124V14.124C53.5732 14.124 53.7602 14.2765 53.7824 14.3L55.2376 12.928ZM52.9 12.124C52.0326 12.124 51.1317 12.2945 50.5344 12.928L51.9896 14.3C52.0083 14.2801 52.1994 14.124 52.9 14.124V12.124ZM50.5444 12.9175C49.9942 13.4844 49.8 14.2414 49.8 15.014H51.8C51.8 14.5546 51.9138 14.3782 51.9796 14.3105L50.5444 12.9175ZM49.8 15.014V18.752H51.8V15.014H49.8ZM49.8 18.752C49.8 19.5224 49.9975 20.2686 50.5344 20.838L51.9896 19.466C51.9105 19.3821 51.8 19.1949 51.8 18.752H49.8ZM50.5444 20.8485C51.1424 21.4646 52.0387 21.628 52.9 21.628V19.628C52.1934 19.628 51.9976 19.4741 51.9796 19.4555L50.5444 20.8485ZM65.0411 22.028L64.9885 21.0294L64.9624 21.0308L64.9364 21.0335L65.0411 22.028ZM63.6691 22.028L63.7737 21.0335L63.7477 21.0308L63.7216 21.0294L63.6691 22.028ZM61.4291 16.26L61.9889 17.0886L61.9937 17.0853L61.4291 16.26ZM60.6451 17.1L59.7662 16.6229L59.6451 16.8461V17.1H60.6451ZM60.3791 22.028L60.3265 21.0294L60.3004 21.0308L60.2744 21.0335L60.3791 22.028ZM59.0071 22.028L59.1066 21.033L59.0831 21.0306L59.0596 21.0294L59.0071 22.028ZM60.5891 15.294H59.5891V17.9468L61.3402 15.9541L60.5891 15.294ZM61.6391 14.51L61.1918 13.6156L61.6391 14.51ZM64.7051 14.86L63.9602 15.5273L63.9673 15.535L64.7051 14.86ZM64.3071 21.916C64.3071 21.6825 64.3944 21.4674 64.5336 21.3061C64.6563 21.1641 64.7882 21.0984 64.8525 21.0714C64.9698 21.022 65.0422 21.0266 64.9885 21.0294L65.0936 23.0266C65.2172 23.0201 65.4227 23.0014 65.6286 22.9146C65.8404 22.8255 66.3071 22.5333 66.3071 21.916H64.3071ZM64.9364 21.0335C64.8076 21.0471 64.6174 21.056 64.3551 21.056V23.056C64.6528 23.056 64.9199 23.0463 65.1457 23.0225L64.9364 21.0335ZM64.3551 21.056C64.0928 21.056 63.9026 21.0471 63.7737 21.0335L63.5644 23.0225C63.7902 23.0463 64.0574 23.056 64.3551 23.056V21.056ZM63.7216 21.0294C63.6679 21.0266 63.7403 21.022 63.8576 21.0714C63.9219 21.0984 64.0539 21.1641 64.1765 21.3061C64.3158 21.4674 64.4031 21.6825 64.4031 21.916H62.4031C62.4031 22.5333 62.8697 22.8255 63.0815 22.9146C63.2875 23.0014 63.4929 23.0201 63.6165 23.0266L63.7216 21.0294ZM64.4031 21.916V17.044H62.4031V21.916H64.4031ZM64.4031 17.044C64.4031 16.548 64.3041 15.99 63.9348 15.5447C63.5358 15.0635 62.9769 14.896 62.4511 14.896V16.896C62.5113 16.896 62.5186 16.9053 62.4946 16.8956C62.4821 16.8906 62.4645 16.8817 62.445 16.8676C62.4254 16.8534 62.4085 16.8373 62.3953 16.8213C62.3683 16.7888 62.3704 16.7744 62.3797 16.8082C62.3897 16.8443 62.4031 16.9185 62.4031 17.044H64.4031ZM62.4511 14.896C61.8681 14.896 61.3336 15.1137 60.8644 15.4347L61.9937 17.0853C62.2339 16.921 62.3807 16.896 62.4511 16.896V14.896ZM60.8692 15.4314C60.4072 15.7436 60.029 16.1388 59.7662 16.6229L61.5239 17.5771C61.6158 17.4079 61.7603 17.2431 61.9889 17.0886L60.8692 15.4314ZM59.6451 17.1V21.916H61.6451V17.1H59.6451ZM59.6451 21.916C59.6451 21.6825 59.7324 21.4674 59.8716 21.3061C59.9943 21.1641 60.1262 21.0984 60.1905 21.0714C60.3078 21.022 60.3802 21.0266 60.3265 21.0294L60.4316 23.0266C60.5552 23.0201 60.7607 23.0014 60.9666 22.9146C61.1784 22.8255 61.6451 22.5333 61.6451 21.916H59.6451ZM60.2744 21.0335C60.1456 21.0471 59.9554 21.056 59.6931 21.056V23.056C59.9908 23.056 60.2579 23.0463 60.4837 23.0225L60.2744 21.0335ZM59.6931 21.056C59.4425 21.056 59.2492 21.0472 59.1066 21.033L58.9076 23.023C59.1382 23.0461 59.4023 23.056 59.6931 23.056V21.056ZM59.0596 21.0294C59.0059 21.0266 59.0783 21.022 59.1956 21.0714C59.2599 21.0984 59.3919 21.1641 59.5145 21.3061C59.6538 21.4674 59.7411 21.6825 59.7411 21.916H57.7411C57.7411 22.5333 58.2077 22.8255 58.4195 22.9146C58.6255 23.0014 58.8309 23.0201 58.9545 23.0266L59.0596 21.0294ZM59.7411 21.916V14.496H57.7411V21.916H59.7411ZM59.7411 14.496C59.7411 14.7995 59.6023 15.027 59.4732 15.16C59.3594 15.2772 59.2467 15.3309 59.2042 15.3497C59.1193 15.3871 59.0725 15.388 59.1246 15.3804C59.2085 15.368 59.387 15.356 59.6931 15.356V13.356C59.3644 13.356 59.067 13.3673 58.8336 13.4016C58.727 13.4173 58.5612 13.4474 58.3969 13.5198C58.316 13.5555 57.7411 13.8163 57.7411 14.496H59.7411ZM59.6931 15.356C59.9797 15.356 60.1405 15.3681 60.2107 15.379C60.2558 15.3861 60.2005 15.3833 60.1086 15.3402C60.0615 15.3181 59.9484 15.2598 59.837 15.138C59.711 15.0001 59.5891 14.7792 59.5891 14.496H61.5891C61.5891 13.8483 61.0637 13.5791 60.9575 13.5293C60.7909 13.4512 60.6236 13.4193 60.5194 13.403C60.2909 13.3673 60.0038 13.356 59.6931 13.356V15.356ZM59.5891 14.496V15.294H61.5891V14.496H59.5891ZM61.3402 15.9541C61.5124 15.7582 61.753 15.5711 62.0863 15.4044L61.1918 13.6156C60.6664 13.8783 60.207 14.2138 59.8379 14.6339L61.3402 15.9541ZM62.0863 15.4044C62.3672 15.264 62.6839 15.188 63.0531 15.188V13.188C62.3955 13.188 61.7696 13.3267 61.1918 13.6156L62.0863 15.4044ZM63.0531 15.188C63.52 15.188 63.7803 15.3264 63.9602 15.5272L65.4499 14.1928C64.8272 13.4976 63.9861 13.188 63.0531 13.188V15.188ZM63.9673 15.535C64.1662 15.7524 64.3071 16.0722 64.3071 16.596H66.3071C66.3071 15.6824 66.0466 14.8449 65.4429 14.185L63.9673 15.535ZM64.3071 16.596V21.916H66.3071V16.596H64.3071ZM67.6809 21.454L66.9828 22.17L67.6809 21.454ZM67.3869 11.542L67.4395 12.5406L67.463 12.5394L67.4864 12.537L67.3869 11.542ZM68.7589 11.542L68.6543 12.5365L68.6803 12.5392L68.7064 12.5406L68.7589 11.542ZM69.1929 20.18L68.4858 20.8871L68.5152 20.9165L68.547 20.9434L69.1929 20.18ZM70.2709 20.488L69.3311 20.8297L69.3366 20.8447L69.3425 20.8594L70.2709 20.488ZM70.2989 21.72L71.2854 21.8844L71.2873 21.8721L70.2989 21.72ZM70.2149 21.944L70.922 22.6511L70.2149 21.944ZM69.3189 21C68.7608 21 68.5043 20.8602 68.379 20.738L66.9828 22.17C67.6042 22.7758 68.4398 23 69.3189 23V21ZM68.379 20.738C68.2529 20.615 68.1209 20.3841 68.1209 19.886H66.1209C66.1209 20.7506 66.3623 21.565 66.9828 22.17L68.379 20.738ZM68.1209 19.886V11.654H66.1209V19.886H68.1209ZM68.1209 11.654C68.1209 11.8875 68.0336 12.1026 67.8944 12.2639C67.7717 12.4059 67.6398 12.4716 67.5755 12.4986C67.4582 12.548 67.3858 12.5434 67.4395 12.5406L67.3344 10.5434C67.2108 10.5499 67.0053 10.5686 66.7994 10.6554C66.5876 10.7445 66.1209 11.0367 66.1209 11.654H68.1209ZM67.4864 12.537C67.6291 12.5228 67.8223 12.514 68.0729 12.514V10.514C67.7822 10.514 67.5181 10.5239 67.2874 10.547L67.4864 12.537ZM68.0729 12.514C68.3352 12.514 68.5254 12.5229 68.6543 12.5365L68.8636 10.5475C68.6378 10.5237 68.3706 10.514 68.0729 10.514V12.514ZM68.7064 12.5406C68.7601 12.5434 68.6877 12.548 68.5704 12.4986C68.5061 12.4716 68.3741 12.4059 68.2515 12.2639C68.1122 12.1026 68.0249 11.8875 68.0249 11.654H70.0249C70.0249 11.0367 69.5583 10.7445 69.3465 10.6554C69.1405 10.5686 68.9351 10.5499 68.8115 10.5434L68.7064 12.5406ZM68.0249 11.654V19.676H70.0249V11.654H68.0249ZM68.0249 19.676C68.0249 20.0541 68.1202 20.5214 68.4858 20.8871L69.9 19.4729C69.9662 19.5391 70.0004 19.6081 70.0156 19.6538C70.0292 19.6946 70.0249 19.7077 70.0249 19.676H68.0249ZM68.547 20.9434C68.9284 21.2661 69.3951 21.334 69.7529 21.334V19.334C69.6912 19.334 69.6746 19.3273 69.6891 19.3313C69.7058 19.3359 69.7672 19.356 69.8389 19.4166L68.547 20.9434ZM69.7529 21.334H70.0189V19.334H69.7529V21.334ZM70.0189 21.334C69.9589 21.334 69.8169 21.3226 69.6585 21.2258C69.4857 21.1202 69.3809 20.9666 69.3311 20.8297L71.2107 20.1463C71.1236 19.9067 70.9581 19.6761 70.7014 19.5192C70.4589 19.371 70.2097 19.334 70.0189 19.334V21.334ZM69.3425 20.8594C69.3276 20.8223 69.3197 20.794 69.3161 20.7801C69.3122 20.7652 69.3107 20.7566 69.3107 20.7563C69.3105 20.7556 69.3112 20.7596 69.3124 20.7692C69.3136 20.7786 69.3149 20.7917 69.3164 20.809C69.3225 20.8824 69.3269 20.9965 69.3269 21.16H71.3269C71.3269 20.9688 71.322 20.7936 71.3095 20.643C71.2995 20.5234 71.2781 20.3133 71.1994 20.1166L69.3425 20.8594ZM69.3269 21.16C69.3269 21.4024 69.3171 21.5258 69.3106 21.5679L71.2873 21.8721C71.3182 21.6716 71.3269 21.4216 71.3269 21.16H69.3269ZM69.3125 21.5556C69.3098 21.5723 69.3116 21.5515 69.3276 21.5089C69.3405 21.4745 69.3874 21.3573 69.5078 21.2369L70.922 22.6511C71.2009 22.3723 71.264 22.0122 71.2853 21.8844L69.3125 21.5556ZM69.5078 21.2369C69.639 21.1057 69.7782 21.0488 69.8632 21.0245C69.9462 21.0008 70.0047 21 70.0189 21V23C70.19 23 70.5968 22.9764 70.922 22.6511L69.5078 21.2369ZM70.0189 21H69.3189V23H70.0189V21ZM74.4056 24.632L75.3342 25.0034L75.3377 24.9943L74.4056 24.632ZM72.5296 24.632L71.5944 24.2779L71.5819 24.3109L71.5718 24.3447L72.5296 24.632ZM73.6216 21.748L74.5568 22.1021L74.692 21.7451L74.5549 21.3888L73.6216 21.748ZM70.8356 14.51L71.7689 14.1508L71.7516 14.1058L71.7301 14.0628L70.8356 14.51ZM71.0596 14.398L70.9601 13.4029L70.955 13.4035L71.0596 14.398ZM72.6416 14.398L72.7585 13.4048L72.7585 13.4048L72.6416 14.398ZM72.9076 14.51L71.959 14.8262L71.9592 14.827L72.9076 14.51ZM74.6716 19.788L73.7232 20.105L74.6988 23.0241L75.6253 20.089L74.6716 19.788ZM76.3376 14.51L75.4092 14.1386L75.3953 14.1733L75.384 14.209L76.3376 14.51ZM76.6596 14.412L76.7545 15.4075L76.7746 15.4056L76.7948 15.4028L76.6596 14.412ZM78.3396 14.51L77.4111 14.1386L77.4076 14.1477L78.3396 14.51ZM73.4772 24.2606C73.559 24.0561 73.69 23.9322 73.773 23.869C73.8557 23.8061 73.9271 23.7753 73.958 23.7631C74.017 23.7398 74.0415 23.7407 73.9941 23.7476C73.9084 23.7603 73.7375 23.772 73.4536 23.772V25.772C73.7671 25.772 74.0535 25.7604 74.2851 25.7264C74.3964 25.71 74.5446 25.6817 74.6923 25.6234C74.7864 25.5863 75.1622 25.4332 75.3341 25.0034L73.4772 24.2606ZM73.4536 23.772C73.1407 23.772 72.9653 23.7598 72.8894 23.7483C72.8347 23.74 72.9076 23.7432 73.0189 23.7988C73.0735 23.8261 73.2306 23.9111 73.3596 24.0993C73.43 24.2019 73.4906 24.3338 73.5158 24.491C73.541 24.6486 73.5246 24.7954 73.4875 24.9193L71.5718 24.3447C71.4797 24.6515 71.5353 24.9753 71.7102 25.2303C71.8532 25.439 72.0348 25.5429 72.1244 25.5877C72.3056 25.6783 72.4906 25.7107 72.5898 25.7257C72.822 25.7609 73.1226 25.772 73.4536 25.772V23.772ZM73.4648 24.9861L74.5568 22.1021L72.6864 21.3939L71.5944 24.2779L73.4648 24.9861ZM74.5549 21.3888L71.7689 14.1508L69.9024 14.8692L72.6884 22.1072L74.5549 21.3888ZM71.7301 14.0628C71.8322 14.267 71.8921 14.5911 71.7283 14.9187C71.5947 15.1859 71.3852 15.3008 71.3179 15.3344C71.1829 15.4019 71.0906 15.4003 71.1643 15.3925L70.955 13.4035C70.8513 13.4144 70.6331 13.4407 70.4234 13.5456C70.3188 13.5979 70.0847 13.7338 69.9395 14.0243C69.764 14.3753 69.8251 14.725 69.9412 14.9572L71.7301 14.0628ZM71.1591 15.393C71.2949 15.3795 71.5302 15.37 71.8856 15.37V13.37C71.5131 13.37 71.1977 13.3792 70.9601 13.403L71.1591 15.393ZM71.8856 15.37C72.226 15.37 72.4282 15.3798 72.5248 15.3911L72.7585 13.4048C72.5377 13.3789 72.236 13.37 71.8856 13.37V15.37ZM72.5248 15.3911C72.5637 15.3957 72.5196 15.3955 72.4391 15.3616C72.3809 15.3372 72.0846 15.2032 71.959 14.8262L73.8563 14.1938C73.712 13.7608 73.362 13.5802 73.2152 13.5184C73.0461 13.4471 72.8783 13.4189 72.7585 13.4048L72.5248 15.3911ZM71.9592 14.827L73.7232 20.105L75.6201 19.471L73.8561 14.193L71.9592 14.827ZM75.6253 20.089L77.2913 14.811L75.384 14.209L73.718 19.487L75.6253 20.089ZM77.2661 14.8814C77.1628 15.1398 76.9822 15.2728 76.9011 15.3239C76.8138 15.3788 76.7432 15.4011 76.7233 15.4072C76.6825 15.4196 76.6812 15.4145 76.7545 15.4075L76.5648 13.4165C76.442 13.4282 76.2891 13.4487 76.141 13.4938C76.0674 13.5162 75.9542 13.5566 75.8355 13.6314C75.7228 13.7023 75.5218 13.8569 75.4092 14.1386L77.2661 14.8814ZM76.7948 15.4028C76.9501 15.3816 77.124 15.37 77.3176 15.37V13.37C77.0446 13.37 76.7798 13.3864 76.5245 13.4212L76.7948 15.4028ZM77.3176 15.37C77.6694 15.37 77.8773 15.3822 77.9764 15.3957C78.0444 15.4051 77.9818 15.4048 77.8777 15.3567C77.8321 15.3357 77.6581 15.2527 77.5167 15.0507C77.4374 14.9374 77.3691 14.7868 77.3486 14.6057C77.3281 14.4249 77.3609 14.2643 77.4112 14.1386L79.2681 14.8814C79.3968 14.5597 79.3577 14.1931 79.1552 13.9037C78.9994 13.6813 78.7993 13.5793 78.7158 13.5408C78.5359 13.4577 78.3503 13.4283 78.2479 13.4143C78.0063 13.3812 77.6846 13.37 77.3176 13.37V15.37ZM77.4076 14.1477L73.4736 24.2697L75.3377 24.9943L79.2717 14.8723L77.4076 14.1477Z" fill="#0C1026"/>
<path d="M40.844 31.4841C40.844 31.0641 40.83 30.7421 40.69 30.7421H39.374V29.9861C39.374 29.4401 39.542 29.2161 40.046 29.2161H40.9C40.998 29.2161 41.04 29.2021 41.04 28.4601C41.04 27.7461 40.998 27.6901 40.9 27.6901H39.626C38.268 27.6901 37.484 28.4181 37.484 29.9861V30.7421H36.56C36.42 30.7421 36.42 31.0781 36.42 31.4981C36.42 31.9181 36.42 32.2681 36.56 32.2681H37.484V38.0221C37.484 38.1621 38.016 38.1761 38.436 38.1761C38.856 38.1761 39.388 38.1621 39.388 38.0221V32.2681H40.69C40.83 32.2681 40.844 31.9041 40.844 31.4841ZM45.5867 38.3581C47.4767 38.3581 49.0307 37.3921 49.0307 35.4041V33.2761C49.0307 31.2881 47.5887 30.3081 45.5867 30.3081C43.5707 30.3081 42.1567 31.3021 42.1567 33.2761V35.4041C42.1567 37.3781 43.4727 38.3581 45.5867 38.3581ZM47.1267 33.2901V35.3761C47.1267 36.2861 46.5947 36.7481 45.5867 36.7481C44.4947 36.7481 44.0607 36.3001 44.0607 35.3761V33.2901C44.0607 32.3661 44.4947 31.9041 45.5867 31.9041C46.5947 31.9041 47.1267 32.3661 47.1267 33.2901ZM54.3589 32.4221H55.0729C55.1989 32.4221 55.2129 31.9041 55.2129 31.4421C55.2129 31.0361 55.1989 30.4761 55.0729 30.4761H54.5549C53.7009 30.4761 53.3089 30.8681 52.4969 32.2121V30.6161C52.4969 30.5041 51.9369 30.4761 51.5869 30.4761C51.2369 30.4761 50.6769 30.5041 50.6769 30.6161V38.0361C50.6769 38.1761 51.2509 38.1761 51.6009 38.1761C51.9509 38.1761 52.5809 38.1761 52.5809 38.0361V33.9201C53.1829 33.0381 53.6729 32.4221 54.3589 32.4221ZM62.2279 40.7521L66.1619 30.6301C66.2179 30.5041 65.5599 30.4901 65.1399 30.4901C64.7899 30.4901 64.2019 30.5181 64.1599 30.6301L62.4939 35.9081L60.7299 30.6301C60.6879 30.5041 60.3239 30.4901 59.7079 30.4901C59.0919 30.4901 58.6019 30.5041 58.6579 30.6301L61.4439 37.8681L60.3519 40.7521C60.3099 40.8781 60.8559 40.8921 61.2759 40.8921C61.6959 40.8921 62.1719 40.8781 62.2279 40.7521ZM70.4422 38.3581C72.3322 38.3581 73.8862 37.3921 73.8862 35.4041V33.2761C73.8862 31.2881 72.4442 30.3081 70.4422 30.3081C68.4262 30.3081 67.0122 31.3021 67.0122 33.2761V35.4041C67.0122 37.3781 68.3282 38.3581 70.4422 38.3581ZM71.9822 33.2901V35.3761C71.9822 36.2861 71.4502 36.7481 70.4422 36.7481C69.3502 36.7481 68.9162 36.3001 68.9162 35.3761V33.2901C68.9162 32.3661 69.3502 31.9041 70.4422 31.9041C71.4502 31.9041 71.9822 32.3661 71.9822 33.2901ZM75.5604 30.6161V35.9501C75.5604 37.3501 76.3864 38.3441 77.7864 38.3581C79.3684 38.3721 80.2784 37.2661 80.2784 37.2661V38.0361C80.2784 38.1621 80.8244 38.1761 81.1744 38.1761C81.5244 38.1761 82.1264 38.1621 82.1264 38.0361V30.6161C82.1264 30.4761 81.5244 30.4761 81.1744 30.4761C80.8244 30.4761 80.2224 30.4761 80.2224 30.6161V35.4601C79.9844 35.9781 79.1444 36.6501 78.4164 36.6501C77.7304 36.6501 77.4644 36.2021 77.4644 35.5021V30.6161C77.4644 30.4761 76.8624 30.4761 76.5124 30.4761C76.1624 30.4761 75.5604 30.4761 75.5604 30.6161ZM89.0061 34.9001L89.3561 27.9421C89.3561 27.8021 88.8381 27.8021 88.3901 27.8021C87.9421 27.8021 87.3541 27.8021 87.3541 27.9421L87.6761 34.9001C87.6761 35.0401 87.9701 35.0401 88.3481 35.0401C88.7261 35.0401 89.0061 35.0401 89.0061 34.9001ZM88.3761 38.1481C88.7261 38.1481 89.3281 38.1481 89.3281 38.0081V36.4401C89.3281 36.3001 88.7261 36.3001 88.3761 36.3001C88.0261 36.3001 87.4241 36.3001 87.4241 36.4401V38.0081C87.4241 38.1481 88.0261 38.1481 88.3761 38.1481Z" fill="white"/>
<path d="M39.374 30.7421H38.374V31.7421H39.374V30.7421ZM37.484 30.7421V31.7421H38.484V30.7421H37.484ZM37.484 32.2681H38.484V31.2681H37.484V32.2681ZM39.388 32.2681V31.2681H38.388V32.2681H39.388ZM41.844 31.4841C41.844 31.2872 41.8425 31.023 41.8073 30.7997C41.791 30.6965 41.7535 30.499 41.6414 30.3029C41.511 30.0747 41.2036 29.7421 40.69 29.7421V31.7421C40.5012 31.7421 40.3172 31.6834 40.1642 31.5766C40.0236 31.4784 39.9447 31.3648 39.9049 31.2951C39.8348 31.1724 39.827 31.0817 39.8317 31.1116C39.8385 31.1542 39.844 31.261 39.844 31.4841H41.844ZM40.69 29.7421H39.374V31.7421H40.69V29.7421ZM40.374 30.7421V29.9861H38.374V30.7421H40.374ZM40.374 29.9861C40.374 29.8944 40.3817 29.8638 40.3802 29.8703C40.3775 29.8814 40.3575 29.9558 40.2848 30.0418C40.2065 30.1344 40.1147 30.1844 40.051 30.2062C40 30.2236 39.9872 30.2161 40.046 30.2161V28.2161C39.673 28.2161 39.1411 28.2966 38.7572 28.7509C38.4118 29.1596 38.374 29.663 38.374 29.9861H40.374ZM40.046 30.2161H40.9V28.2161H40.046V30.2161ZM40.9 30.2161C40.9109 30.2161 41.0006 30.2175 41.1056 30.1993C41.2275 30.178 41.3907 30.1281 41.552 30.0106C41.8662 29.7818 41.9528 29.4613 41.9799 29.3464C42.0349 29.114 42.04 28.7984 42.04 28.4601H40.04C40.04 28.6391 40.0374 28.7593 40.0332 28.8396C40.0285 28.931 40.0235 28.9289 40.0336 28.8863C40.038 28.8677 40.0957 28.5971 40.3745 28.394C40.6534 28.1908 40.9556 28.2161 40.9 28.2161V30.2161ZM42.04 28.4601C42.04 28.1266 42.0337 27.821 41.9833 27.5922C41.9594 27.4837 41.8897 27.205 41.6426 26.9763C41.3467 26.7023 41.0109 26.6901 40.9 26.6901V28.6901C40.8381 28.6901 40.5443 28.685 40.2838 28.4438C40.0722 28.2479 40.0313 28.0278 40.0302 28.0225C40.0236 27.9926 40.0286 28.0011 40.0332 28.0903C40.0374 28.171 40.04 28.2888 40.04 28.4601H42.04ZM40.9 26.6901H39.626V28.6901H40.9V26.6901ZM39.626 26.6901C38.7751 26.6901 37.9405 26.9208 37.3271 27.5548C36.7191 28.1831 36.484 29.0477 36.484 29.9861H38.484C38.484 29.3565 38.6409 29.0731 38.7644 28.9455C38.8825 28.8234 39.1189 28.6901 39.626 28.6901V26.6901ZM36.484 29.9861V30.7421H38.484V29.9861H36.484ZM37.484 29.7421H36.56V31.7421H37.484V29.7421ZM36.56 29.7421C36.0149 29.7421 35.7091 30.1131 35.5908 30.3418C35.4885 30.5395 35.4583 30.7367 35.4456 30.8355C35.4181 31.0503 35.42 31.3149 35.42 31.4981H37.42C37.42 31.2613 37.4219 31.1479 37.4294 31.0898C37.4342 31.052 37.4302 31.1389 37.3673 31.2606C37.3315 31.3297 37.2558 31.4513 37.1122 31.5586C36.9539 31.6768 36.7596 31.7421 36.56 31.7421V29.7421ZM35.42 31.4981C35.42 31.6825 35.4182 31.9483 35.4452 32.1647C35.4576 32.2639 35.4869 32.4586 35.5846 32.6541C35.6931 32.8711 35.9946 33.2681 36.56 33.2681V31.2681C36.7698 31.2681 36.969 31.3398 37.1266 31.462C37.2681 31.5717 37.3406 31.6939 37.3735 31.7597C37.4319 31.8764 37.4349 31.9573 37.4298 31.9166C37.4218 31.8529 37.42 31.7337 37.42 31.4981H35.42ZM36.56 33.2681H37.484V31.2681H36.56V33.2681ZM36.484 32.2681V38.0221H38.484V32.2681H36.484ZM36.484 38.0221C36.484 38.3981 36.6757 38.666 36.84 38.8134C36.9875 38.9456 37.1407 39.0111 37.225 39.0425C37.3983 39.107 37.5759 39.1323 37.69 39.1453C37.9381 39.1734 38.2277 39.1761 38.436 39.1761V37.1761C38.2243 37.1761 38.0379 37.1719 37.915 37.158C37.8436 37.1499 37.8619 37.1455 37.9224 37.168C37.9503 37.1784 38.0586 37.2198 38.1753 37.3245C38.309 37.4443 38.484 37.6812 38.484 38.0221H36.484ZM38.436 39.1761C38.6443 39.1761 38.9339 39.1734 39.182 39.1453C39.2961 39.1323 39.4737 39.107 39.647 39.0425C39.7313 39.0111 39.8845 38.9456 40.032 38.8134C40.1963 38.666 40.388 38.3981 40.388 38.0221H38.388C38.388 37.6812 38.563 37.4443 38.6967 37.3245C38.8134 37.2198 38.9217 37.1784 38.9496 37.168C39.0101 37.1455 39.0284 37.1499 38.957 37.158C38.8341 37.1719 38.6477 37.1761 38.436 37.1761V39.1761ZM40.388 38.0221V32.2681H38.388V38.0221H40.388ZM39.388 33.2681H40.69V31.2681H39.388V33.2681ZM40.69 33.2681C41.2631 33.2681 41.5602 32.86 41.6617 32.6633C41.76 32.473 41.7938 32.2823 41.809 32.1784C41.8421 31.9517 41.844 31.6843 41.844 31.4841H39.844C39.844 31.7039 39.8389 31.8285 39.83 31.8888C39.8242 31.9284 39.8283 31.855 39.8845 31.746C39.9157 31.6857 39.9855 31.5697 40.1209 31.4638C40.2722 31.3456 40.4709 31.2681 40.69 31.2681V33.2681ZM45.5867 39.3581C46.6877 39.3581 47.787 39.0783 48.6346 38.4135C49.5134 37.7242 50.0307 36.6892 50.0307 35.4041H48.0307C48.0307 36.107 47.771 36.549 47.4003 36.8398C46.9985 37.1549 46.3758 37.3581 45.5867 37.3581V39.3581ZM50.0307 35.4041V33.2761H48.0307V35.4041H50.0307ZM50.0307 33.2761C50.0307 32.0168 49.5608 30.9741 48.688 30.2688C47.8455 29.588 46.736 29.3081 45.5867 29.3081V31.3081C46.4394 31.3081 47.052 31.5182 47.431 31.8244C47.7796 32.1061 48.0307 32.5474 48.0307 33.2761H50.0307ZM45.5867 29.3081C44.4286 29.3081 43.3205 29.5924 42.4826 30.2778C41.616 30.9866 41.1567 32.0286 41.1567 33.2761H43.1567C43.1567 32.5496 43.4045 32.1076 43.7488 31.8259C44.1219 31.5208 44.7288 31.3081 45.5867 31.3081V29.3081ZM41.1567 33.2761V35.4041H43.1567V33.2761H41.1567ZM41.1567 35.4041C41.1567 36.6292 41.5761 37.6745 42.4408 38.3913C43.2754 39.0831 44.3924 39.3581 45.5867 39.3581V37.3581C44.667 37.3581 44.069 37.1431 43.7171 36.8515C43.3954 36.5847 43.1567 36.1531 43.1567 35.4041H41.1567ZM46.1267 33.2901V35.3761H48.1267V33.2901H46.1267ZM46.1267 35.3761C46.1267 35.5081 46.1072 35.5822 46.094 35.6166C46.0828 35.6459 46.0745 35.6523 46.0719 35.6546C46.0641 35.6615 45.9565 35.7481 45.5867 35.7481V37.7481C46.2249 37.7481 46.8874 37.6037 47.3975 37.1522C47.9296 36.6812 48.1267 36.0285 48.1267 35.3761H46.1267ZM45.5867 35.7481C45.1471 35.7481 45.07 35.6529 45.0947 35.6758C45.137 35.7151 45.0607 35.6994 45.0607 35.3761H43.0607C43.0607 35.9769 43.2015 36.6471 43.7338 37.1414C44.2484 37.6193 44.9343 37.7481 45.5867 37.7481V35.7481ZM45.0607 35.3761V33.2901H43.0607V35.3761H45.0607ZM45.0607 33.2901C45.0607 32.967 45.137 32.9435 45.1002 32.9782C45.0773 32.9999 45.1539 32.9041 45.5867 32.9041V30.9041C44.9275 30.9041 44.2412 31.0394 43.7282 31.523C43.2014 32.0197 43.0607 32.6893 43.0607 33.2901H45.0607ZM45.5867 32.9041C45.9566 32.9041 46.0622 32.9908 46.0691 32.9969C46.0715 32.999 46.0806 33.0061 46.0927 33.038C46.1068 33.0751 46.1267 33.153 46.1267 33.2901H48.1267C48.1267 32.6351 47.9323 31.9788 47.4003 31.5043C46.8892 31.0485 46.2248 30.9041 45.5867 30.9041V32.9041ZM52.4969 32.2121H51.4969V35.8011L53.3528 32.7292L52.4969 32.2121ZM52.5809 33.9201L51.755 33.3564L51.5809 33.6114V33.9201H52.5809ZM54.3589 33.4221H55.0729V31.4221H54.3589V33.4221ZM55.0729 33.4221C55.4791 33.4221 55.7514 33.1989 55.8862 33.0357C56.009 32.887 56.0674 32.7359 56.0944 32.6569C56.151 32.4908 56.1734 32.3202 56.1849 32.2076C56.2101 31.9632 56.2129 31.671 56.2129 31.4421H54.2129C54.2129 31.6753 54.2088 31.873 54.1954 32.0031C54.1877 32.0778 54.1829 32.0655 54.2015 32.0111C54.2094 31.9878 54.2462 31.8807 54.344 31.7622C54.4539 31.6292 54.6983 31.4221 55.0729 31.4221V33.4221ZM56.2129 31.4421C56.2129 31.2383 56.2099 30.9521 56.1851 30.7065C56.1737 30.593 56.152 30.4248 56.0994 30.2622C56.0748 30.1861 56.0209 30.0377 55.9065 29.8896C55.7858 29.7334 55.5105 29.4761 55.0729 29.4761V31.4761C54.6668 31.4761 54.4196 31.2364 54.3237 31.1123C54.2342 30.9964 54.2021 30.8949 54.1965 30.8777C54.182 30.8328 54.1874 30.83 54.1952 30.9073C54.2089 31.0431 54.2129 31.24 54.2129 31.4421H56.2129ZM55.0729 29.4761H54.5549V31.4761H55.0729V29.4761ZM54.5549 29.4761C53.9302 29.4761 53.3728 29.6349 52.8544 30.0851C52.4138 30.4679 52.0408 31.0333 51.641 31.695L53.3528 32.7292C53.7651 32.0469 53.9941 31.7444 54.1659 31.5951C54.26 31.5134 54.3256 31.4761 54.5549 31.4761V29.4761ZM53.4969 32.2121V30.6161H51.4969V32.2121H53.4969ZM53.4969 30.6161C53.4969 30.1351 53.1875 29.8605 53.0554 29.7656C52.9143 29.6644 52.7756 29.6158 52.7061 29.5937C52.5544 29.5457 52.3967 29.5232 52.2867 29.5106C52.0491 29.4834 51.779 29.4761 51.5869 29.4761V31.4761C51.7448 31.4761 51.9298 31.4828 52.0596 31.4976C52.1334 31.5061 52.1375 31.5116 52.1018 31.5002C52.0902 31.4966 51.998 31.4686 51.889 31.3903C51.7889 31.3184 51.4969 31.0691 51.4969 30.6161H53.4969ZM51.5869 29.4761C51.3948 29.4761 51.1248 29.4834 50.8871 29.5106C50.7772 29.5232 50.6194 29.5457 50.4677 29.5937C50.3982 29.6158 50.2595 29.6644 50.1185 29.7656C49.9864 29.8605 49.6769 30.1351 49.6769 30.6161H51.6769C51.6769 31.0691 51.385 31.3184 51.2849 31.3903C51.1758 31.4686 51.0836 31.4966 51.0721 31.5002C51.0363 31.5116 51.0404 31.5061 51.1142 31.4976C51.2441 31.4828 51.429 31.4761 51.5869 31.4761V29.4761ZM49.6769 30.6161V38.0361H51.6769V30.6161H49.6769ZM49.6769 38.0361C49.6769 38.4444 49.9014 38.7192 50.0691 38.8563C50.221 38.9806 50.3757 39.0391 50.4569 39.0661C50.6275 39.1227 50.8024 39.1438 50.9146 39.1543C51.1573 39.177 51.4379 39.1761 51.6009 39.1761V37.1761C51.4139 37.1761 51.2325 37.1753 51.1007 37.163C51.0257 37.1559 51.0352 37.1507 51.0873 37.168C51.1092 37.1753 51.2163 37.2109 51.3354 37.3083C51.4704 37.4187 51.6769 37.6628 51.6769 38.0361H49.6769ZM51.6009 39.1761C51.7657 39.1761 52.0562 39.1768 52.3088 39.1549C52.4263 39.1446 52.6009 39.1248 52.7688 39.0735C52.8472 39.0496 52.9997 38.9971 53.1522 38.8831C53.3135 38.7624 53.5809 38.4838 53.5809 38.0361H51.5809C51.5809 37.6235 51.8287 37.3755 51.9541 37.2816C52.0708 37.1944 52.1714 37.1648 52.1852 37.1606C52.224 37.1487 52.2193 37.1551 52.1355 37.1624C51.9857 37.1754 51.7862 37.1761 51.6009 37.1761V39.1761ZM53.5809 38.0361V33.9201H51.5809V38.0361H53.5809ZM53.4069 34.4839C53.7113 34.0378 53.9283 33.7508 54.1203 33.5719C54.2926 33.4112 54.3546 33.4221 54.3589 33.4221V31.4221C53.6772 31.4221 53.1513 31.741 52.7566 32.1089C52.3816 32.4584 52.0525 32.9204 51.755 33.3564L53.4069 34.4839ZM62.2279 40.7521L63.1417 41.1583L63.1514 41.1365L63.16 41.1144L62.2279 40.7521ZM66.1619 30.6301L65.2481 30.224L65.2384 30.2457L65.2298 30.2679L66.1619 30.6301ZM64.1599 30.6301L63.2236 30.279L63.2143 30.3038L63.2063 30.3291L64.1599 30.6301ZM62.4939 35.9081L61.5455 36.2251L62.5211 39.1442L63.4475 36.2091L62.4939 35.9081ZM60.7299 30.6301L59.7812 30.9463L59.7815 30.9471L60.7299 30.6301ZM58.6579 30.6301L59.5912 30.2709L59.582 30.2472L59.5717 30.224L58.6579 30.6301ZM61.4439 37.8681L62.3791 38.2222L62.5143 37.8652L62.3772 37.5089L61.4439 37.8681ZM60.3519 40.7521L59.4167 40.398L59.4096 40.4168L59.4032 40.4359L60.3519 40.7521ZM63.16 41.1144L67.094 30.9924L65.2298 30.2679L61.2958 40.3899L63.16 41.1144ZM67.0757 31.0363C67.1583 30.8505 67.1988 30.61 67.1314 30.3536C67.068 30.1121 66.9329 29.9487 66.8303 29.8537C66.6493 29.6864 66.4514 29.6221 66.3855 29.6013C66.2168 29.5482 66.0364 29.5276 65.9207 29.517C65.6609 29.4932 65.351 29.4901 65.1399 29.4901V31.4901C65.3488 31.4901 65.578 31.494 65.7381 31.5087C65.8324 31.5173 65.8323 31.524 65.7843 31.5088C65.7788 31.5071 65.6263 31.4645 65.4723 31.3221C65.3832 31.2396 65.2569 31.0895 65.1971 30.8619C65.1334 30.6197 65.1725 30.394 65.2481 30.224L67.0757 31.0363ZM65.1399 29.4901C64.9467 29.4901 64.6731 29.4975 64.4279 29.5238C64.3108 29.5364 64.1595 29.5572 64.0152 29.5971C63.9458 29.6163 63.834 29.6515 63.716 29.7167C63.6266 29.7662 63.3552 29.9279 63.2236 30.279L65.0962 30.9812C65.0325 31.1513 64.9347 31.2668 64.8624 31.3355C64.7904 31.4037 64.7235 31.445 64.6834 31.4672C64.607 31.5094 64.5508 31.5241 64.5479 31.5249C64.5365 31.528 64.562 31.5209 64.6409 31.5124C64.7877 31.4967 64.9831 31.4901 65.1399 31.4901V29.4901ZM63.2063 30.3291L61.5403 35.6071L63.4475 36.2091L65.1135 30.9311L63.2063 30.3291ZM63.4423 35.5911L61.6783 30.3131L59.7815 30.9471L61.5455 36.2251L63.4423 35.5911ZM61.6786 30.3139C61.5245 29.8515 61.1389 29.6757 60.997 29.6213C60.8278 29.5565 60.659 29.5317 60.5446 29.519C60.3067 29.4926 60.0053 29.4901 59.7079 29.4901V31.4901C60.0265 31.4901 60.2151 31.4947 60.3237 31.5068C60.3826 31.5133 60.3511 31.5156 60.2812 31.4889C60.2428 31.4741 60.1587 31.4379 60.0652 31.3613C59.9651 31.2792 59.8471 31.1438 59.7812 30.9463L61.6786 30.3139ZM59.7079 29.4901C59.4083 29.4901 59.0818 29.4928 58.8314 29.5178C58.7254 29.5284 58.529 29.5513 58.3411 29.6263C58.2586 29.6592 58.0339 29.7561 57.8589 29.9916C57.6198 30.3135 57.6009 30.714 57.7441 31.0363L59.5717 30.224C59.6246 30.3429 59.6676 30.5077 59.6493 30.7018C59.6307 30.899 59.5545 31.063 59.4644 31.1842C59.3079 31.3949 59.1172 31.47 59.0824 31.4839C58.9899 31.5208 58.9439 31.5166 59.0304 31.5079C59.165 31.4944 59.3916 31.4901 59.7079 31.4901V29.4901ZM57.7247 30.9893L60.5107 38.2273L62.3772 37.5089L59.5912 30.2709L57.7247 30.9893ZM60.5087 37.514L59.4167 40.398L61.2871 41.1062L62.3791 38.2222L60.5087 37.514ZM59.4032 40.4359C59.3462 40.6068 59.3278 40.8105 59.3819 41.022C59.4342 41.2269 59.539 41.3788 59.6347 41.4803C59.8056 41.6615 59.9988 41.738 60.0749 41.7659C60.2495 41.83 60.4306 41.8528 60.5365 41.8639C60.7781 41.8892 61.0672 41.8921 61.2759 41.8921V39.8921C61.0647 39.8921 60.8707 39.888 60.7448 39.8748C60.667 39.8667 60.6932 39.8624 60.7641 39.8884C60.7883 39.8973 60.9425 39.952 61.0899 40.1083C61.1739 40.1974 61.2709 40.3361 61.3196 40.5269C61.3701 40.7244 61.3523 40.9131 61.3006 41.0683L59.4032 40.4359ZM61.2759 41.8921C61.4857 41.8921 61.758 41.8892 61.9956 41.8636C62.11 41.8513 62.2664 41.8289 62.4213 41.779C62.4992 41.7539 62.6133 41.7104 62.732 41.6335C62.8476 41.5585 63.0291 41.4116 63.1417 41.1583L61.3141 40.346C61.4127 40.1241 61.567 40.0052 61.6443 39.9552C61.7246 39.9031 61.7891 39.8814 61.8079 39.8753C61.8447 39.8635 61.8453 39.8682 61.7812 39.8751C61.6618 39.888 61.4861 39.8921 61.2759 39.8921V41.8921ZM70.4422 39.3581C71.5431 39.3581 72.6424 39.0783 73.4901 38.4135C74.3689 37.7242 74.8862 36.6892 74.8862 35.4041H72.8862C72.8862 36.107 72.6265 36.549 72.2558 36.8398C71.8539 37.1549 71.2312 37.3581 70.4422 37.3581V39.3581ZM74.8862 35.4041V33.2761H72.8862V35.4041H74.8862ZM74.8862 33.2761C74.8862 32.0168 74.4163 30.9741 73.5434 30.2688C72.7009 29.588 71.5915 29.3081 70.4422 29.3081V31.3081C71.2949 31.3081 71.9075 31.5182 72.2864 31.8244C72.6351 32.1061 72.8862 32.5474 72.8862 33.2761H74.8862ZM70.4422 29.3081C69.2841 29.3081 68.176 29.5924 67.3381 30.2778C66.4715 30.9866 66.0122 32.0286 66.0122 33.2761H68.0122C68.0122 32.5496 68.2599 32.1076 68.6043 31.8259C68.9774 31.5208 69.5843 31.3081 70.4422 31.3081V29.3081ZM66.0122 33.2761V35.4041H68.0122V33.2761H66.0122ZM66.0122 35.4041C66.0122 36.6292 66.4316 37.6745 67.2963 38.3913C68.1309 39.0831 69.2479 39.3581 70.4422 39.3581V37.3581C69.5225 37.3581 68.9245 37.1431 68.5726 36.8515C68.2508 36.5847 68.0122 36.1531 68.0122 35.4041H66.0122ZM70.9822 33.2901V35.3761H72.9822V33.2901H70.9822ZM70.9822 35.3761C70.9822 35.5081 70.9627 35.5822 70.9495 35.6166C70.9383 35.6459 70.93 35.6523 70.9274 35.6546C70.9195 35.6615 70.812 35.7481 70.4422 35.7481V37.7481C71.0804 37.7481 71.7428 37.6037 72.253 37.1522C72.7851 36.6812 72.9822 36.0285 72.9822 35.3761H70.9822ZM70.4422 35.7481C70.0026 35.7481 69.9255 35.6529 69.9501 35.6758C69.9924 35.7151 69.9162 35.6994 69.9162 35.3761H67.9162C67.9162 35.9769 68.057 36.6471 68.5892 37.1414C69.1039 37.6193 69.7898 37.7481 70.4422 37.7481V35.7481ZM69.9162 35.3761V33.2901H67.9162V35.3761H69.9162ZM69.9162 33.2901C69.9162 32.967 69.9925 32.9435 69.9557 32.9782C69.9327 32.9999 70.0094 32.9041 70.4422 32.9041V30.9041C69.783 30.9041 69.0966 31.0394 68.5837 31.523C68.0569 32.0197 67.9162 32.6893 67.9162 33.2901H69.9162ZM70.4422 32.9041C70.8121 32.9041 70.9177 32.9908 70.9246 32.9969C70.9269 32.999 70.9361 33.0061 70.9482 33.038C70.9622 33.0751 70.9822 33.153 70.9822 33.2901H72.9822C72.9822 32.6351 72.7877 31.9788 72.2558 31.5043C71.7447 31.0485 71.0803 30.9041 70.4422 30.9041V32.9041ZM77.7864 38.3581L77.7764 39.3581L77.7775 39.3581L77.7864 38.3581ZM80.2784 37.2661H81.2784V34.4768L79.5062 36.6308L80.2784 37.2661ZM80.2224 35.4601L81.1311 35.8776L81.2224 35.6789V35.4601H80.2224ZM74.5604 30.6161V35.9501H76.5604V30.6161H74.5604ZM74.5604 35.9501C74.5604 36.8429 74.8253 37.6965 75.404 38.3416C75.9933 38.9985 76.828 39.3486 77.7764 39.3581L77.7964 37.3582C77.3448 37.3537 77.0665 37.1997 76.8927 37.0061C76.7085 36.8007 76.5604 36.4574 76.5604 35.9501H74.5604ZM77.7775 39.3581C78.8121 39.3672 79.6245 39.0087 80.1683 38.6573C80.4403 38.4816 80.6507 38.3044 80.7965 38.1672C80.8698 38.0983 80.9277 38.0386 80.97 37.993C80.9912 37.9701 81.0085 37.9507 81.0219 37.9353C81.0286 37.9275 81.0344 37.9208 81.0392 37.9152C81.0416 37.9123 81.0437 37.9098 81.0456 37.9075C81.0466 37.9064 81.0475 37.9053 81.0483 37.9043C81.0487 37.9038 81.0491 37.9033 81.0495 37.9028C81.0497 37.9026 81.05 37.9023 81.0501 37.9021C81.0503 37.9018 81.0506 37.9015 80.2784 37.2661C79.5062 36.6308 79.5064 36.6304 79.5067 36.6301C79.5068 36.63 79.507 36.6297 79.5072 36.6295C79.5075 36.6291 79.5079 36.6287 79.5082 36.6284C79.5088 36.6276 79.5093 36.6269 79.5098 36.6263C79.5109 36.6251 79.5117 36.6241 79.5123 36.6234C79.5135 36.6219 79.514 36.6214 79.5137 36.6218C79.513 36.6226 79.5092 36.6269 79.5024 36.6343C79.4887 36.649 79.4632 36.6756 79.4264 36.7102C79.3523 36.78 79.2363 36.8784 79.083 36.9774C78.7763 37.1756 78.3426 37.363 77.7952 37.3582L77.7775 39.3581ZM79.2784 37.2661V38.0361H81.2784V37.2661H79.2784ZM79.2784 38.0361C79.2784 38.462 79.5227 38.7356 79.6793 38.8604C79.8263 38.9775 79.9743 39.0334 80.0508 39.0591C80.2131 39.1136 80.3797 39.1361 80.4889 39.1477C80.7265 39.1731 80.9966 39.1761 81.1744 39.1761V37.1761C81.0022 37.1761 80.8243 37.1722 80.7013 37.159C80.6303 37.1514 80.6385 37.1467 80.6876 37.1632C80.7074 37.1699 80.81 37.204 80.9257 37.2962C81.0511 37.3961 81.2784 37.6418 81.2784 38.0361H79.2784ZM81.1744 39.1761C81.3533 39.1761 81.6334 39.173 81.8803 39.1485C81.9945 39.1372 82.161 39.1161 82.3207 39.067C82.3944 39.0443 82.5401 38.9944 82.6872 38.8877C82.834 38.7811 83.1264 38.5042 83.1264 38.0361H81.1264C81.1264 37.5995 81.3999 37.3507 81.5125 37.269C81.6253 37.1871 81.7212 37.1589 81.733 37.1553C81.7689 37.1443 81.763 37.1503 81.683 37.1582C81.5414 37.1723 81.3455 37.1761 81.1744 37.1761V39.1761ZM83.1264 38.0361V30.6161H81.1264V38.0361H83.1264ZM83.1264 30.6161C83.1264 30.188 82.8807 29.911 82.7156 29.782C82.5633 29.6629 82.4096 29.6075 82.3299 29.5822C82.1608 29.5284 81.9861 29.508 81.8714 29.4977C81.6238 29.4753 81.3383 29.4761 81.1744 29.4761V31.4761C81.3605 31.4761 81.551 31.4769 81.6919 31.4896C81.7714 31.4967 81.7691 31.5026 81.7238 31.4881C81.706 31.4825 81.6021 31.4501 81.4841 31.3578C81.3533 31.2556 81.1264 31.0092 81.1264 30.6161H83.1264ZM81.1744 29.4761C81.0105 29.4761 80.725 29.4753 80.4774 29.4977C80.3626 29.508 80.188 29.5284 80.0189 29.5822C79.9392 29.6075 79.7855 29.6629 79.6332 29.782C79.4681 29.911 79.2224 30.188 79.2224 30.6161H81.2224C81.2224 31.0092 80.9955 31.2556 80.8647 31.3578C80.7467 31.4501 80.6427 31.4825 80.625 31.4881C80.5797 31.5026 80.5774 31.4967 80.6569 31.4896C80.7978 31.4769 80.9883 31.4761 81.1744 31.4761V29.4761ZM79.2224 30.6161V35.4601H81.2224V30.6161H79.2224ZM79.3137 35.0426C79.2918 35.0903 79.1678 35.2626 78.9276 35.4316C78.6895 35.5991 78.4978 35.6501 78.4164 35.6501V37.6501C79.063 37.6501 79.6553 37.3651 80.0786 37.0672C80.5 36.7706 80.915 36.3479 81.1311 35.8776L79.3137 35.0426ZM78.4164 35.6501C78.3524 35.6501 78.3484 35.6396 78.3779 35.6525C78.3928 35.659 78.4117 35.6695 78.4314 35.6851C78.4512 35.7006 78.4668 35.7171 78.4781 35.7319C78.5004 35.7612 78.4959 35.7699 78.4859 35.7307C78.4757 35.6903 78.4644 35.6171 78.4644 35.5021H76.4644C76.4644 35.9502 76.5445 36.495 76.8882 36.9453C77.271 37.447 77.8369 37.6501 78.4164 37.6501V35.6501ZM78.4644 35.5021V30.6161H76.4644V35.5021H78.4644ZM78.4644 30.6161C78.4644 30.188 78.2187 29.911 78.0536 29.782C77.9013 29.6629 77.7476 29.6075 77.6679 29.5822C77.4988 29.5284 77.3241 29.508 77.2094 29.4977C76.9618 29.4753 76.6763 29.4761 76.5124 29.4761V31.4761C76.6985 31.4761 76.889 31.4769 77.0299 31.4896C77.1094 31.4967 77.1071 31.5026 77.0618 31.4881C77.044 31.4825 76.9401 31.4501 76.8221 31.3578C76.6913 31.2556 76.4644 31.0092 76.4644 30.6161H78.4644ZM76.5124 29.4761C76.3485 29.4761 76.063 29.4753 75.8154 29.4977C75.7006 29.508 75.526 29.5284 75.3569 29.5822C75.2772 29.6075 75.1235 29.6629 74.9712 29.782C74.8061 29.911 74.5604 30.188 74.5604 30.6161H76.5604C76.5604 31.0092 76.3335 31.2556 76.2027 31.3578C76.0847 31.4501 75.9807 31.4825 75.963 31.4881C75.9177 31.5026 75.9154 31.4967 75.9949 31.4896C76.1358 31.4769 76.3263 31.4761 76.5124 31.4761V29.4761ZM89.0061 34.9001L88.0073 34.8499L88.0061 34.875V34.9001H89.0061ZM89.3561 27.9421L90.3548 27.9924L90.3561 27.9673V27.9421H89.3561ZM87.3541 27.9421H86.3541V27.9652L86.3551 27.9883L87.3541 27.9421ZM87.6761 34.9001H88.6761V34.877L88.675 34.8539L87.6761 34.9001ZM90.0048 34.9504L90.3548 27.9924L88.3573 27.8919L88.0073 34.8499L90.0048 34.9504ZM90.3561 27.9421C90.3561 27.5728 90.1708 27.3031 89.9981 27.1492C89.8461 27.0138 89.6879 26.949 89.6021 26.9186C89.4263 26.8563 89.2469 26.8346 89.135 26.824C88.8925 26.8012 88.5982 26.8021 88.3901 26.8021V28.8021C88.63 28.8021 88.8187 28.8031 88.9472 28.8152C89.0207 28.8221 88.9989 28.8267 88.9342 28.8038C88.9039 28.793 88.7897 28.7512 88.6677 28.6426C88.5251 28.5155 88.3561 28.2764 88.3561 27.9421H90.3561ZM88.3901 26.8021C88.1794 26.8021 87.873 26.8013 87.6182 26.8233C87.4997 26.8335 87.3221 26.8536 87.1509 26.9079C87.0699 26.9336 86.914 26.9897 86.7602 27.1113C86.5908 27.2452 86.3541 27.5223 86.3541 27.9421H88.3541C88.3541 28.3269 88.1358 28.5734 88.0003 28.6805C87.8803 28.7753 87.7739 28.8085 87.755 28.8145C87.7081 28.8293 87.7054 28.8232 87.79 28.8159C87.9411 28.8029 88.1528 28.8021 88.3901 28.8021V26.8021ZM86.3551 27.9883L86.6771 34.9463L88.675 34.8539L88.353 27.8959L86.3551 27.9883ZM86.6761 34.9001C86.6761 35.3773 86.9662 35.6931 87.2209 35.843C87.4248 35.9629 87.6293 35.9981 87.7269 36.0123C87.936 36.0426 88.1897 36.0401 88.3481 36.0401V34.0401C88.2501 34.0401 88.1752 34.04 88.1107 34.0383C88.0797 34.0375 88.056 34.0363 88.0381 34.0351C88.0198 34.0338 88.0126 34.0328 88.0138 34.033C88.0138 34.033 88.0329 34.0356 88.0643 34.0446C88.0934 34.0529 88.1574 34.0735 88.2349 34.1191C88.3139 34.1656 88.4299 34.2517 88.5259 34.3983C88.6283 34.5546 88.6761 34.7312 88.6761 34.9001H86.6761ZM88.3481 36.0401C88.5048 36.0401 88.7581 36.0428 88.9664 36.0117C89.0644 35.997 89.2723 35.9602 89.4786 35.8339C89.741 35.6733 90.0061 35.3548 90.0061 34.9001H88.0061C88.0061 34.7412 88.0487 34.5705 88.1459 34.4154C88.2382 34.2681 88.3521 34.1785 88.4343 34.1282C88.5142 34.0793 88.5812 34.0567 88.6132 34.0472C88.6474 34.0371 88.6692 34.0339 88.6712 34.0336C88.672 34.0335 88.6486 34.0365 88.5828 34.0383C88.5199 34.04 88.4462 34.0401 88.3481 34.0401V36.0401ZM88.3761 39.1481C88.54 39.1481 88.8255 39.1489 89.0731 39.1266C89.1878 39.1162 89.3625 39.0958 89.5316 39.042C89.6113 39.0167 89.765 38.9613 89.9173 38.8423C90.0824 38.7132 90.3281 38.4362 90.3281 38.0081H88.3281C88.3281 37.615 88.555 37.3686 88.6858 37.2664C88.8038 37.1742 88.9077 37.1417 88.9255 37.1361C88.9708 37.1217 88.9731 37.1275 88.8936 37.1347C88.7527 37.1473 88.5622 37.1481 88.3761 37.1481V39.1481ZM90.3281 38.0081V36.4401H88.3281V38.0081H90.3281ZM90.3281 36.4401C90.3281 36.012 90.0824 35.735 89.9173 35.606C89.765 35.4869 89.6113 35.4315 89.5316 35.4062C89.3625 35.3524 89.1878 35.332 89.0731 35.3217C88.8255 35.2993 88.54 35.3001 88.3761 35.3001V37.3001C88.5622 37.3001 88.7527 37.3009 88.8936 37.3136C88.9731 37.3207 88.9708 37.3266 88.9255 37.3121C88.9077 37.3065 88.8038 37.2741 88.6858 37.1818C88.555 37.0796 88.3281 36.8332 88.3281 36.4401H90.3281ZM88.3761 35.3001C88.2122 35.3001 87.9267 35.2993 87.6791 35.3217C87.5643 35.332 87.3897 35.3524 87.2205 35.4062C87.1409 35.4315 86.9872 35.4869 86.8349 35.606C86.6698 35.735 86.4241 36.012 86.4241 36.4401H88.4241C88.4241 36.8332 88.1972 37.0796 88.0664 37.1818C87.9484 37.2741 87.8444 37.3065 87.8267 37.3122C87.7814 37.3266 87.7791 37.3207 87.8586 37.3136C87.9995 37.3009 88.19 37.3001 88.3761 37.3001V35.3001ZM86.4241 36.4401V38.0081H88.4241V36.4401H86.4241ZM86.4241 38.0081C86.4241 38.4362 86.6698 38.7132 86.8349 38.8423C86.9872 38.9613 87.1409 39.0167 87.2205 39.042C87.3897 39.0958 87.5643 39.1162 87.6791 39.1266C87.9267 39.1489 88.2122 39.1481 88.3761 39.1481V37.1481C88.19 37.1481 87.9995 37.1473 87.8586 37.1347C87.7791 37.1275 87.7814 37.1217 87.8267 37.1361C87.8444 37.1417 87.9484 37.1742 88.0664 37.2664C88.1972 37.3686 88.4241 37.615 88.4241 38.0081H86.4241Z" fill="#FF648C"/>
<defs>
<filter id="filter0_d" x="0" y="0" width="124" height="68" filterUnits="userSpaceOnUse" color-interpolation-filters="sRGB">
<feFlood flood-opacity="0" result="BackgroundImageFix"/>
<feColorMatrix in="SourceAlpha" type="matrix" values="0 0 0 0 0 0 0 0 0 0 0 0 0 0 0 0 0 0 127 0"/>
<feOffset dy="4"/>
<feGaussianBlur stdDeviation="4"/>
<feColorMatrix type="matrix" values="0 0 0 0 0.376471 0 0 0 0 0.380392 0 0 0 0 0.439216 0 0 0 0.16 0"/>
<feBlend mode="normal" in2="BackgroundImageFix" result="effect1_dropShadow"/>
<feBlend mode="normal" in="SourceGraphic" in2="effect1_dropShadow" result="shape"/>
</filter>
</defs>
</svg>
