<svg width="19" height="20" viewBox="0 0 19 20" fill="none" xmlns="http://www.w3.org/2000/svg">
<path d="M17.1553 18.1481C15.9185 18.9308 14.5483 19.479 13.1133 19.7652C12.3132 19.9234 11.4995 20.0018 10.684 19.9993C9.27714 20.0187 7.88025 19.7605 6.57307 19.2395C5.39139 18.7697 4.32006 18.0595 3.42693 17.1537C2.53379 16.2479 1.83832 15.1663 1.38457 13.9775C0.898282 12.7182 0.654841 11.3781 0.66713 10.0281C0.659883 8.70424 0.908383 7.39143 1.39893 6.16196C1.86805 4.97406 2.56623 3.89021 3.45366 2.97225C4.35363 2.04918 5.42623 1.31236 6.61038 0.803692C7.87946 0.260194 9.24774 -0.0127478 10.628 0.00229891C11.3999 -0.00333825 12.1708 0.0567177 12.9324 0.181818C13.5859 0.292389 14.2277 0.463575 14.8494 0.693114C15.4307 0.910871 15.99 1.18351 16.5196 1.50739C17.0575 1.84096 17.5694 2.21495 18.0506 2.62614L15.8983 5.19542C15.5383 4.88606 15.1603 4.59832 14.7662 4.33372C14.384 4.07769 13.9774 3.86025 13.5523 3.68459C13.1023 3.50167 12.6357 3.36268 12.159 3.26954C11.609 3.16494 11.0501 3.11446 10.4903 3.11877C9.63692 3.1122 8.79281 3.29618 8.01944 3.65733C7.26431 4.01149 6.58875 4.51515 6.03357 5.13796C5.46277 5.78029 5.01394 6.52154 4.70917 7.32524C4.38339 8.1723 4.21938 9.07305 4.22564 9.98068C4.21648 10.9242 4.37536 11.8618 4.69483 12.7496C4.98782 13.5656 5.44326 14.3137 6.03357 14.9484C6.61615 15.57 7.32051 16.0647 8.10266 16.4017C8.95322 16.7621 9.86951 16.9412 10.7931 16.9274C11.6701 16.9348 12.5425 16.7989 13.3758 16.5252C14.1234 16.2841 14.827 15.9232 15.4593 15.4568V11.8175H10.5204V8.86338H18.7437V16.9834C18.2414 17.4074 17.7107 17.7966 17.1553 18.1481Z" fill="#74531D"/>
<path style="mix-blend-mode:multiply" opacity="0.6" d="M17.1553 18.1481C15.9185 18.9308 14.5483 19.479 13.1133 19.7652C12.3132 19.9234 11.4995 20.0018 10.684 19.9993C9.27714 20.0187 7.88025 19.7605 6.57307 19.2395C5.39139 18.7697 4.32006 18.0595 3.42693 17.1537C2.53379 16.2479 1.83832 15.1663 1.38457 13.9775C0.898282 12.7182 0.654841 11.3781 0.66713 10.0281C0.659883 8.70424 0.908383 7.39143 1.39893 6.16196C1.86805 4.97406 2.56623 3.89021 3.45366 2.97225C4.35363 2.04918 5.42623 1.31236 6.61038 0.803692C7.87946 0.260194 9.24774 -0.0127478 10.628 0.00229891C11.3999 -0.00333825 12.1708 0.0567177 12.9324 0.181818C13.5859 0.292389 14.2277 0.463575 14.8494 0.693114C15.4307 0.910871 15.99 1.18351 16.5196 1.50739C17.0575 1.84096 17.5694 2.21495 18.0506 2.62614L15.8983 5.19542C15.5383 4.88606 15.1603 4.59832 14.7662 4.33372C14.384 4.07769 13.9774 3.86025 13.5523 3.68459C13.1023 3.50167 12.6357 3.36268 12.159 3.26954C11.609 3.16494 11.0501 3.11446 10.4903 3.11877C9.63692 3.1122 8.79281 3.29618 8.01944 3.65733C7.26431 4.01149 6.58875 4.51515 6.03357 5.13796C5.46277 5.78029 5.01394 6.52154 4.70917 7.32524C4.38339 8.1723 4.21938 9.07305 4.22564 9.98068C4.21648 10.9242 4.37536 11.8618 4.69483 12.7496C4.98782 13.5656 5.44326 14.3137 6.03357 14.9484C6.61615 15.57 7.32051 16.0647 8.10266 16.4017C8.95322 16.7621 9.86951 16.9412 10.7931 16.9274C11.6701 16.9348 12.5425 16.7989 13.3758 16.5252C14.1234 16.2841 14.827 15.9232 15.4593 15.4568V11.8175H10.5204V8.86338H18.7437V16.9834C18.2414 17.4074 17.7107 17.7966 17.1553 18.1481Z" fill="url(#paint0_linear)"/>
<path d="M18.7419 16.9823V8.8623H10.5187V11.8165H15.4575V19.026C16.0461 18.7771 16.6138 18.4812 17.155 18.1413C17.7097 17.7915 18.2399 17.4043 18.7419 16.9823Z" fill="#74531D"/>
<path d="M8.01888 3.65562C8.79225 3.29447 9.63635 3.11049 10.4897 3.11706C11.0496 3.11275 11.6085 3.16327 12.1585 3.26787C12.6352 3.36101 13.1018 3.50001 13.5518 3.68292C13.9768 3.85859 14.3835 4.07603 14.7657 4.33206C15.1597 4.59666 15.5377 4.88436 15.8978 5.19371L18.0501 2.62443C17.5688 2.21324 17.057 1.83925 16.5191 1.50568C15.9894 1.18181 15.4302 0.909162 14.8489 0.691405C14.2267 0.461686 13.5844 0.290496 12.9305 0.180109C12.1716 0.0553509 11.4036 -0.0047044 10.6347 0.000589928C9.25436 -0.0144568 7.8861 0.258485 6.61702 0.801983C5.43287 1.31065 4.36025 2.04752 3.46028 2.97059C2.57285 3.88854 1.87468 4.97235 1.40555 6.16025C1.01789 7.134 0.783592 8.16209 0.71106 9.20778C2.34083 6.48337 4.95893 4.49425 8.01888 3.65562Z" fill="#74531D"/>
<defs>
<linearGradient id="paint0_linear" x1="16.8456" y1="19.1004" x2="1.19265" y2="0.0993412" gradientUnits="userSpaceOnUse">
<stop/>
<stop offset="0.038" stop-color="#2E2E2E"/>
<stop offset="0.082" stop-color="#5F5F5F"/>
<stop offset="0.129" stop-color="#8A8A8A"/>
<stop offset="0.177" stop-color="#AEAEAE"/>
<stop offset="0.228" stop-color="#CBCBCB"/>
<stop offset="0.282" stop-color="#E2E2E2"/>
<stop offset="0.339" stop-color="#F2F2F2"/>
<stop offset="0.404" stop-color="#FCFCFC"/>
<stop offset="0.492" stop-color="white"/>
<stop offset="0.608" stop-color="#C9C9C9"/>
<stop offset="0.872" stop-color="#424242"/>
<stop offset="1"/>
</linearGradient>
</defs>
</svg>
