<svg width="16" height="16" viewBox="0 0 16 16" fill="none" xmlns="http://www.w3.org/2000/svg">
<path fill-rule="evenodd" clip-rule="evenodd" d="M8.48014 15.4065C12.3113 15.4065 15.4766 12.2341 15.4766 8.40291C15.4766 4.57171 12.3113 1.40649 8.47298 1.40649C4.64178 1.40649 1.47656 4.57171 1.47656 8.40291C1.47656 12.2341 4.64894 15.4065 8.48014 15.4065ZM8.80939 4.85803V2.40892C9.53266 2.60943 10.1986 3.46161 10.657 4.66467C10.0984 4.77925 9.48253 4.8437 8.80939 4.85803ZM6.2959 4.66467C6.85447 4.77925 7.47032 4.8437 8.14347 4.85803V2.40892C7.4202 2.60943 6.75421 3.46161 6.2959 4.66467ZM5.63015 4.50697C5.14319 4.36374 4.70636 4.18472 4.33398 3.96272C5.02145 3.32538 5.8593 2.83843 6.79025 2.57346C6.3391 3.03894 5.93808 3.69776 5.63015 4.50697ZM10.1629 2.57346C10.6141 3.03894 11.0151 3.69776 11.323 4.50697C11.81 4.36374 12.2468 4.18472 12.6192 3.96272C11.9317 3.32538 11.0938 2.83843 10.1629 2.57346ZM14.5315 8.05898H11.9749C11.9463 6.97765 11.7887 5.98225 11.5309 5.11576C12.1253 4.94389 12.6481 4.71473 13.0777 4.44261C13.9228 5.42369 14.4527 6.68404 14.5315 8.05898ZM2.42184 8.05898H4.97837C5.00701 6.97765 5.16456 5.98225 5.42236 5.11576C4.82798 4.94389 4.29806 4.71473 3.87555 4.44261C3.03054 5.42369 2.50062 6.68404 2.42184 8.05898ZM11.2871 8.05869H8.80939V5.52365C9.53982 5.50216 10.2273 5.42339 10.8646 5.28733C11.1081 6.11086 11.2585 7.06329 11.2871 8.05869ZM5.66571 8.05869H8.14346V5.52365C7.41302 5.50216 6.72556 5.42339 6.08822 5.28733C5.84474 6.11086 5.69436 7.06329 5.66571 8.05869ZM3.88988 12.37C3.0377 11.3889 2.49346 10.1214 2.42184 8.73216H4.97837C4.99985 9.82781 5.16456 10.8375 5.42236 11.704C4.82798 11.8831 4.31238 12.1051 3.88988 12.37ZM5.66571 8.73216C5.68719 9.74188 5.84474 10.7015 6.08822 11.5393C6.72556 11.4033 7.41302 11.3173 8.14346 11.303V8.73216H5.66571ZM10.8646 11.5393C10.2273 11.4033 9.53982 11.3173 8.80939 11.303V8.73216H11.2871C11.2657 9.74188 11.1081 10.7015 10.8646 11.5393ZM11.5309 11.704C12.1253 11.8831 12.6481 12.1122 13.0706 12.3772C13.9228 11.3889 14.467 10.1214 14.5386 8.73216H11.9749C11.9535 9.82782 11.7887 10.8375 11.5309 11.704ZM8.80939 14.4181V11.969C9.48253 11.9833 10.0984 12.0478 10.657 12.1623C10.1986 13.3654 9.53266 14.2176 8.80939 14.4181ZM6.2959 12.1623C6.75421 13.3654 7.4202 14.2176 8.14347 14.4181V11.969C7.47032 11.9833 6.85447 12.0478 6.2959 12.1623ZM6.76854 14.2249C5.85192 13.96 5.02839 13.4802 4.34808 12.85C4.72046 12.6352 5.14297 12.4633 5.62992 12.3201C5.93069 13.1078 6.31739 13.7595 6.76854 14.2249ZM11.3231 12.3201C11.0223 13.115 10.6285 13.7595 10.1845 14.2321C11.1011 13.9671 11.9246 13.4873 12.6049 12.8572C12.2397 12.6423 11.8101 12.4633 11.3231 12.3201Z" fill="#767676"/>
</svg>
