<svg width="20" height="24" viewBox="0 0 20 24" fill="none" xmlns="http://www.w3.org/2000/svg">
<path style="mix-blend-mode:multiply" d="M17.1495 3.307C16.3343 2.58948 15.3802 2.04762 14.3467 1.71511C13.1842 1.34246 11.9693 1.1597 10.7487 1.17386H1.63169V22.1357L0.444122 22.8131L1.63169 24H6.5675V17.038H10.2928C11.4932 17.045 12.6882 16.8758 13.8396 16.5357C14.9082 16.2216 15.9087 15.7099 16.789 15.027C17.6448 14.3489 18.3366 13.4861 18.8125 12.5029C19.3216 11.4168 19.5755 10.2285 19.5547 9.02898C19.5688 7.92028 19.3578 6.82032 18.9344 5.7957C18.5272 4.84619 17.9181 3.9969 17.1495 3.307ZM13.472 11.507C12.5993 12.1729 11.5173 12.5042 10.4218 12.441H6.5675V5.77977H10.4218C11.5072 5.72037 12.582 6.02127 13.479 6.63582C13.8393 6.934 14.1222 7.31486 14.3037 7.74601C14.4852 8.17715 14.56 8.64587 14.5217 9.11216C14.5412 9.5651 14.4567 10.0165 14.2748 10.4316C14.0928 10.8468 13.8182 11.2147 13.472 11.507Z" fill="url(#paint0_linear)"/>
<path d="M0.4487 22.818V0.000777052H9.56572C10.7869 -0.013508 12.0024 0.16925 13.1655 0.542024C14.1988 0.874952 15.1528 1.41677 15.9683 2.13392C16.7373 2.82484 17.3464 3.67534 17.7532 4.62612C18.176 5.65087 18.3864 6.75088 18.3717 7.85946C18.393 9.05881 18.1397 10.2471 17.6313 11.3333C17.1543 12.3159 16.4628 13.1785 15.6078 13.8574C14.7277 14.5404 13.7272 15.0516 12.6583 15.3644C11.5072 15.7059 10.3121 15.8758 9.11155 15.8685H5.38098V22.8304L0.4487 22.818ZM9.24056 11.2555C10.3361 11.3188 11.4181 10.9875 12.2908 10.3216C12.6369 10.0288 12.9114 9.66059 13.0934 9.24515C13.2754 8.82972 13.3599 8.37807 13.3405 7.92488C13.3789 7.45841 13.304 6.98956 13.1221 6.55835C12.9403 6.12714 12.6568 5.7464 12.2961 5.4486C11.3997 4.83381 10.3255 4.53288 9.24056 4.59255H5.38098V11.2538L9.24056 11.2555Z" fill="url(#paint1_linear)"/>
<path d="M17.1018 11.063C16.6668 11.9682 16.0309 12.7619 15.2427 13.3836C14.4207 14.0254 13.4846 14.5056 12.4841 14.7987C11.3882 15.1246 10.2501 15.2862 9.10693 15.278H4.79848V22.2399H1.02902V0.574083H9.5611C10.7198 0.5596 11.8733 0.73221 12.9771 1.08526C13.9349 1.38972 14.819 1.89032 15.5731 2.55516C16.2808 3.18743 16.8402 3.96839 17.2113 4.8422C17.6049 5.79498 17.7998 6.8182 17.7839 7.84909C17.8062 8.9586 17.5728 10.0584 17.1018 11.063ZM12.6484 4.98546C11.6507 4.29001 10.4502 3.94651 9.23593 4.00909H4.79848V11.8377H9.23593C10.4707 11.9055 11.6884 11.5242 12.6643 10.7641C13.0747 10.4165 13.4008 9.98029 13.6182 9.48821C13.8355 8.99614 13.9384 8.46104 13.919 7.92337C13.9571 7.36717 13.8611 6.81 13.639 6.29871C13.417 5.78742 13.0754 5.33702 12.6431 4.98546H12.6484Z" fill="url(#paint2_linear)"/>
<g style="mix-blend-mode:screen">
<path style="mix-blend-mode:screen" d="M4.79848 4.00927H9.23593C10.4502 3.9467 11.6507 4.29019 12.6484 4.98564C13.0797 5.33776 13.4203 5.78839 13.6414 6.29965C13.8625 6.81091 13.9577 7.3678 13.919 7.92355C13.9384 8.46122 13.8355 8.99632 13.6182 9.4884C13.4008 9.98048 13.0747 10.4167 12.6643 10.7642C12.5509 10.8502 12.4329 10.9299 12.3109 11.003L15.3151 13.3148C16.069 12.7045 16.6795 11.9359 17.1035 11.0632C17.5751 10.0575 17.8085 8.95647 17.7857 7.84577C17.8015 6.81488 17.6067 5.7916 17.2131 4.83882C16.842 3.96501 16.2826 3.18405 15.5749 2.55178C14.8208 1.88694 13.9367 1.38639 12.9789 1.08194C11.8752 0.728097 10.7216 0.555468 9.56287 0.570758H1.02902V2.30062L4.79848 5.20496V4.00927Z" fill="url(#paint3_linear)"/>
</g>
<defs>
<linearGradient id="paint0_linear" x1="10" y1="-1.31503" x2="10" y2="28.5882" gradientUnits="userSpaceOnUse">
<stop stop-color="#808184"/>
<stop offset="0.999" stop-color="#231F20"/>
</linearGradient>
<linearGradient id="paint1_linear" x1="9.41083" y1="31.8256" x2="9.41083" y2="0.319626" gradientUnits="userSpaceOnUse">
<stop stop-color="#DCD8D5"/>
<stop offset="0.06" stop-color="#CDCBC9"/>
<stop offset="0.175" stop-color="#A6A9AB"/>
<stop offset="0.264" stop-color="#848C91"/>
<stop offset="0.522" stop-color="#F1F2F2"/>
<stop offset="0.589" stop-color="#E2E4E4"/>
<stop offset="0.718" stop-color="#BBBFC2"/>
<stop offset="0.875" stop-color="#848C91"/>
<stop offset="1" stop-color="#A5A7AA"/>
</linearGradient>
<linearGradient id="paint2_linear" x1="9.4072" y1="39.7466" x2="9.4072" y2="-16.0234" gradientUnits="userSpaceOnUse">
<stop stop-color="#DCD8D5"/>
<stop offset="0.046" stop-color="#CDCAC8"/>
<stop offset="0.135" stop-color="#A6A8A9"/>
<stop offset="0.23" stop-color="#767E82"/>
<stop offset="0.522" stop-color="#F1F2F2"/>
<stop offset="0.589" stop-color="#E2E4E4"/>
<stop offset="0.717" stop-color="#BBBFC2"/>
<stop offset="0.873" stop-color="#848C91"/>
<stop offset="1" stop-color="#A5A7AA"/>
</linearGradient>
<linearGradient id="paint3_linear" x1="5.78835" y1="9.35111" x2="10.1661" y2="1.77148" gradientUnits="userSpaceOnUse">
<stop offset="0.149" stop-color="#E4E1DE"/>
<stop offset="0.259" stop-color="#BCB9B7"/>
<stop offset="0.459" stop-color="#7A7876"/>
<stop offset="0.64" stop-color="#454443"/>
<stop offset="0.796" stop-color="#1F1F1E"/>
<stop offset="0.922" stop-color="#080808"/>
<stop offset="1"/>
</linearGradient>
</defs>
</svg>
