<svg width="19" height="24" viewBox="0 0 19 24" fill="none" xmlns="http://www.w3.org/2000/svg">
<path d="M5.71549 7.74949C5.90638 8.11916 6.19141 8.4318 6.54177 8.65583C7.05432 8.991 7.61115 9.25288 8.19607 9.43391C8.89871 9.67245 9.7913 9.92058 10.8739 10.1783C11.9486 10.4471 13.0048 10.7854 14.0358 11.191C14.8684 11.5092 15.6415 11.9656 16.3224 12.5412C16.9111 13.0487 17.3819 13.6789 17.7018 14.3876C18.0315 15.1711 18.1918 16.0155 18.1723 16.8654C18.1899 17.8584 17.9872 18.843 17.5787 19.7482C17.1941 20.575 16.6294 21.3051 15.9261 21.885C15.1744 22.4925 14.3094 22.944 13.3815 23.2132C12.321 23.5248 11.2203 23.6772 10.1151 23.6656C8.4037 23.6717 6.70508 23.3705 5.1 22.7761C3.46062 22.1563 1.95554 21.2269 0.666687 20.0385L3.06122 17.1894C4.06045 18.0778 5.18281 18.8168 6.3934 19.3836C7.5974 19.9082 8.89993 20.1678 10.2129 20.1448C11.2459 20.1995 12.27 19.928 13.1404 19.3684C13.4837 19.1371 13.7631 18.8228 13.9527 18.4546C14.1422 18.0863 14.2358 17.6761 14.2246 17.262C14.2305 16.8846 14.1588 16.51 14.0138 16.1616C13.8401 15.799 13.5708 15.4908 13.2348 15.2704C12.7521 14.9485 12.2287 14.6925 11.6783 14.5092C10.8315 14.2174 9.97035 13.969 9.09826 13.7649C8.00425 13.5183 6.92637 13.2049 5.87065 12.8264C5.01786 12.5272 4.22022 12.0892 3.50982 11.5302C2.88337 11.0265 2.38323 10.3832 2.04943 9.65164C1.69041 8.80199 1.51791 7.88511 1.54355 6.96297C1.53101 6.03072 1.7287 5.10763 2.12194 4.26245C2.49933 3.46273 3.04058 2.7514 3.71047 2.17462C4.4232 1.56709 5.24987 1.10806 6.14211 0.824392C7.14474 0.503231 8.19231 0.344796 9.24498 0.355154C10.7702 0.332793 12.2875 0.579623 13.7272 1.0843C15.079 1.58513 16.3409 2.30157 17.4641 3.20587L15.3275 6.21692C14.3807 5.51192 13.3482 4.93009 12.255 4.48527C11.2774 4.0927 10.2342 3.88936 9.18086 3.88608C8.21013 3.82596 7.24885 4.10649 6.46252 4.67936C6.16198 4.9025 5.91768 5.19279 5.74905 5.52713C5.58041 5.86147 5.49213 6.23061 5.49122 6.60514C5.48268 6.99831 5.55918 7.38869 5.71549 7.74949Z" fill="white"/>
<path style="mix-blend-mode:multiply" opacity="0.65" d="M5.71549 7.74949C5.90638 8.11916 6.19141 8.4318 6.54177 8.65583C7.05432 8.991 7.61115 9.25288 8.19607 9.43391C8.89871 9.67245 9.7913 9.92058 10.8739 10.1783C11.9486 10.4471 13.0048 10.7854 14.0358 11.191C14.8684 11.5092 15.6415 11.9656 16.3224 12.5412C16.9111 13.0487 17.3819 13.6789 17.7018 14.3876C18.0315 15.1711 18.1918 16.0155 18.1723 16.8654C18.1899 17.8584 17.9872 18.843 17.5787 19.7482C17.1941 20.575 16.6294 21.3051 15.9261 21.885C15.1744 22.4925 14.3094 22.944 13.3815 23.2132C12.321 23.5248 11.2203 23.6772 10.1151 23.6656C8.4037 23.6717 6.70508 23.3705 5.1 22.7761C3.46062 22.1563 1.95554 21.2269 0.666687 20.0385L3.06122 17.1894C4.06045 18.0778 5.18281 18.8168 6.3934 19.3836C7.5974 19.9082 8.89993 20.1678 10.2129 20.1448C11.2459 20.1995 12.27 19.928 13.1404 19.3684C13.4837 19.1371 13.7631 18.8228 13.9527 18.4546C14.1422 18.0863 14.2358 17.6761 14.2246 17.262C14.2305 16.8846 14.1588 16.51 14.0138 16.1616C13.8401 15.799 13.5708 15.4908 13.2348 15.2704C12.7521 14.9485 12.2287 14.6925 11.6783 14.5092C10.8315 14.2174 9.97035 13.969 9.09826 13.7649C8.00425 13.5183 6.92637 13.2049 5.87065 12.8264C5.01786 12.5272 4.22022 12.0892 3.50982 11.5302C2.88337 11.0265 2.38323 10.3832 2.04943 9.65164C1.69041 8.80199 1.51791 7.88511 1.54355 6.96297C1.53101 6.03072 1.7287 5.10763 2.12194 4.26245C2.49933 3.46273 3.04058 2.7514 3.71047 2.17462C4.4232 1.56709 5.24987 1.10806 6.14211 0.824392C7.14474 0.503231 8.19231 0.344796 9.24498 0.355154C10.7702 0.332793 12.2875 0.579623 13.7272 1.0843C15.079 1.58513 16.3409 2.30157 17.4641 3.20587L15.3275 6.21692C14.3807 5.51192 13.3482 4.93009 12.255 4.48527C11.2774 4.0927 10.2342 3.88936 9.18086 3.88608C8.21013 3.82596 7.24885 4.10649 6.46252 4.67936C6.16198 4.9025 5.91768 5.19279 5.74905 5.52713C5.58041 5.86147 5.49213 6.23061 5.49122 6.60514C5.48268 6.99831 5.55918 7.38869 5.71549 7.74949Z" fill="url(#paint0_linear)"/>
<path d="M7.43865 4.13393C7.99679 3.94783 8.58227 3.85711 9.17051 3.86557C10.2239 3.86885 11.267 4.07219 12.2447 4.46477C13.3379 4.90958 14.3703 5.49146 15.3171 6.19647L17.4537 3.18536C16.3305 2.28106 15.0686 1.56463 13.7168 1.06379C12.2771 0.559115 10.7598 0.312285 9.23458 0.334646C8.18191 0.324288 7.13439 0.482723 6.13177 0.803884C5.23953 1.08755 4.4128 1.54658 3.70007 2.15412C3.03018 2.73089 2.48898 3.44223 2.11159 4.24194C1.71835 5.08713 1.52062 6.01021 1.53315 6.94246C1.53435 7.31739 1.56088 7.69181 1.61246 8.06317C2.2462 7.02917 3.09426 6.14332 4.09937 5.46547C5.10447 4.78762 6.24319 4.33355 7.43865 4.13393Z" fill="white"/>
<path d="M6.3934 19.3616C5.18281 18.7948 4.06045 18.0558 3.06122 17.1675L0.666687 20.0165C1.95554 21.2049 3.46062 22.1344 5.1 22.7541C6.70508 23.3485 8.4037 23.6497 10.1151 23.6436C11.2203 23.6553 12.321 23.5029 13.3815 23.1913C14.3094 22.922 15.1744 22.4705 15.9261 21.863C17.0569 20.9372 17.8122 19.6311 18.0509 18.1886C16.5332 19.8106 12.8756 20.0739 10.7761 20.0823C10.5923 20.0958 10.4102 20.1144 10.2129 20.1144C8.90056 20.1399 7.59809 19.8832 6.3934 19.3616Z" fill="white"/>
<path d="M6.3934 19.3616C5.18281 18.7948 4.06045 18.0558 3.06122 17.1675L0.666687 20.0165C1.95554 21.2049 3.46062 22.1344 5.1 22.7541C6.70508 23.3485 8.4037 23.6497 10.1151 23.6436C11.2203 23.6553 12.321 23.5029 13.3815 23.1913C14.3094 22.922 15.1744 22.4705 15.9261 21.863C17.0569 20.9372 17.8122 19.6311 18.0509 18.1886C16.5332 19.8106 12.8756 20.0739 10.7761 20.0823C10.5923 20.0958 10.4102 20.1144 10.2129 20.1144C8.90056 20.1399 7.59809 19.8832 6.3934 19.3616Z" fill="white"/>
<defs>
<linearGradient id="paint0_linear" x1="18.489" y1="21.0552" x2="-2.5628" y2="9.16297" gradientUnits="userSpaceOnUse">
<stop/>
<stop offset="0.038" stop-color="#2E2E2E"/>
<stop offset="0.082" stop-color="#5F5F5F"/>
<stop offset="0.129" stop-color="#8A8A8A"/>
<stop offset="0.177" stop-color="#AEAEAE"/>
<stop offset="0.228" stop-color="#CBCBCB"/>
<stop offset="0.282" stop-color="#E2E2E2"/>
<stop offset="0.339" stop-color="#F2F2F2"/>
<stop offset="0.404" stop-color="#FCFCFC"/>
<stop offset="0.492" stop-color="white"/>
<stop offset="0.608" stop-color="#C9C9C9"/>
<stop offset="0.872" stop-color="#424242"/>
<stop offset="1"/>
</linearGradient>
</defs>
</svg>
