<svg width="92" height="29" viewBox="0 0 92 29" fill="none" xmlns="http://www.w3.org/2000/svg">
<path d="M20.5211 0.200562V14.2069H18.0848V0.200562H20.5211Z" fill="white"/>
<path d="M52.7557 0.200562H55.4144L49.6034 14.3069H47.4467L41.6346 0.200562H44.3515L48.565 10.9652L52.7557 0.200562Z" fill="white"/>
<path d="M88.6447 14.2069L85.1992 9.325H82.1144V14.2069H79.6782V0.200543H85.9143C86.6481 0.1921 87.3787 0.297471 88.0803 0.512941C88.6793 0.694165 89.2362 0.993326 89.7184 1.3929C90.1647 1.77393 90.5169 2.25333 90.7473 2.79354C91.1843 3.88609 91.221 5.09834 90.8513 6.21548C90.6942 6.65919 90.4614 7.07217 90.1632 7.43596C89.8663 7.79281 89.5118 8.09728 89.1145 8.33674C88.6932 8.58977 88.2383 8.7819 87.7633 8.90741L91.5372 14.209L88.6447 14.2069ZM87.8423 3.01431C87.2137 2.58335 86.4594 2.37483 85.6992 2.42178H82.1134V7.14438H85.72C86.4746 7.18447 87.2191 6.95657 87.8226 6.5008C88.0778 6.29341 88.2813 6.02931 88.4169 5.72944C88.5526 5.42957 88.6167 5.10218 88.6042 4.77318C88.6262 4.4404 88.5686 4.10717 88.4361 3.80122C88.3035 3.49527 88.1 3.22547 87.8423 3.01431Z" fill="white"/>
<path d="M3.11182 4.57617C3.22948 4.80425 3.40515 4.99714 3.6211 5.13537C3.93701 5.34216 4.28021 5.50374 4.64073 5.61544C5.07379 5.76262 5.62394 5.91571 6.29121 6.07469C6.95359 6.24058 7.60455 6.4493 8.24 6.69952C8.7532 6.89584 9.2297 7.17748 9.64939 7.5326C10.0123 7.84575 10.3024 8.23457 10.4996 8.67185C10.7028 9.15522 10.8016 9.67623 10.7895 10.2006C10.8004 10.8133 10.6755 11.4208 10.4237 11.9793C10.1866 12.4894 9.8386 12.9398 9.40513 13.2976C8.94183 13.6724 8.40866 13.951 7.83673 14.1172C7.18311 14.3094 6.50467 14.4035 5.82352 14.3963C4.7687 14.4001 3.72176 14.2142 2.73247 13.8474C1.72203 13.465 0.794384 12.8916 0 12.1584L1.47587 10.4005C2.09174 10.9486 2.78351 11.4046 3.52965 11.7543C4.27174 12.078 5.07455 12.2382 5.88378 12.224C6.52047 12.2577 7.15168 12.0902 7.68813 11.7449C7.89976 11.6022 8.07198 11.4083 8.18881 11.1811C8.30564 10.9539 8.36328 10.7008 8.35641 10.4453C8.36005 10.2124 8.31583 9.98135 8.22649 9.76635C8.11944 9.54265 7.95342 9.3525 7.74633 9.21649C7.44883 9.01789 7.1262 8.85996 6.787 8.74685C6.26506 8.56682 5.7343 8.41353 5.19679 8.28759C4.5225 8.13547 3.85814 7.94211 3.20746 7.70859C2.68184 7.52397 2.19021 7.25374 1.75236 6.90882C1.36625 6.59806 1.05799 6.20114 0.852249 5.74977C0.63097 5.22555 0.52465 4.65984 0.540454 4.09088C0.532727 3.5157 0.65457 2.94616 0.896941 2.42469C1.12955 1.93127 1.46314 1.49238 1.87603 1.13652C2.31532 0.761676 2.82484 0.478459 3.37477 0.303438C3.99274 0.105284 4.63841 0.00753098 5.28722 0.0139216C6.22731 0.000124948 7.16247 0.152417 8.04982 0.4638C8.883 0.772809 9.66079 1.21484 10.353 1.77279L9.03617 3.63058C8.45259 3.1956 7.81625 2.83662 7.14244 2.56217C6.53989 2.31995 5.89693 2.19449 5.2477 2.19247C4.64939 2.15538 4.0569 2.32846 3.57225 2.68192C3.38702 2.81959 3.23644 2.9987 3.1325 3.20498C3.02857 3.41127 2.97416 3.63903 2.97359 3.87011C2.96833 4.11269 3.01548 4.35355 3.11182 4.57617Z" fill="white"/>
<path style="mix-blend-mode:multiply" opacity="0.65" d="M3.11182 4.57617C3.22948 4.80425 3.40515 4.99714 3.6211 5.13537C3.93701 5.34216 4.28021 5.50374 4.64073 5.61544C5.07379 5.76262 5.62394 5.91571 6.29121 6.07469C6.95359 6.24058 7.60455 6.4493 8.24 6.69952C8.7532 6.89584 9.2297 7.17748 9.64939 7.5326C10.0123 7.84575 10.3024 8.23457 10.4996 8.67185C10.7028 9.15522 10.8016 9.67623 10.7895 10.2006C10.8004 10.8133 10.6755 11.4208 10.4237 11.9793C10.1866 12.4894 9.8386 12.9398 9.40513 13.2976C8.94183 13.6724 8.40866 13.951 7.83673 14.1172C7.18311 14.3094 6.50467 14.4035 5.82352 14.3963C4.7687 14.4001 3.72176 14.2142 2.73247 13.8474C1.72203 13.465 0.794384 12.8916 0 12.1584L1.47587 10.4005C2.09174 10.9486 2.78351 11.4046 3.52965 11.7543C4.27174 12.078 5.07455 12.2382 5.88378 12.224C6.52047 12.2577 7.15168 12.0902 7.68813 11.7449C7.89976 11.6022 8.07198 11.4083 8.18881 11.1811C8.30564 10.9539 8.36328 10.7008 8.35641 10.4453C8.36005 10.2124 8.31583 9.98135 8.22649 9.76635C8.11944 9.54265 7.95342 9.3525 7.74633 9.21649C7.44883 9.01789 7.1262 8.85996 6.787 8.74685C6.26506 8.56682 5.7343 8.41353 5.19679 8.28759C4.5225 8.13547 3.85814 7.94211 3.20746 7.70859C2.68184 7.52397 2.19021 7.25374 1.75236 6.90882C1.36625 6.59806 1.05799 6.20114 0.852249 5.74977C0.63097 5.22555 0.52465 4.65984 0.540454 4.09088C0.532727 3.5157 0.65457 2.94616 0.896941 2.42469C1.12955 1.93127 1.46314 1.49238 1.87603 1.13652C2.31532 0.761676 2.82484 0.478459 3.37477 0.303438C3.99274 0.105284 4.63841 0.00753098 5.28722 0.0139216C6.22731 0.000124948 7.16247 0.152417 8.04982 0.4638C8.883 0.772809 9.66079 1.21484 10.353 1.77279L9.03617 3.63058C8.45259 3.1956 7.81625 2.83662 7.14244 2.56217C6.53989 2.31995 5.89693 2.19449 5.2477 2.19247C4.64939 2.15538 4.0569 2.32846 3.57225 2.68192C3.38702 2.81959 3.23644 2.9987 3.1325 3.20498C3.02857 3.41127 2.97416 3.63903 2.97359 3.87011C2.96833 4.11269 3.01548 4.35355 3.11182 4.57617Z" fill="url(#paint0_linear)"/>
<path d="M4.17461 2.34499C4.51862 2.23016 4.87948 2.17419 5.24204 2.17941C5.89128 2.18143 6.53424 2.30689 7.13679 2.54911C7.8106 2.82355 8.44691 3.18257 9.03049 3.61755L10.3474 1.75973C9.65511 1.20178 8.87731 0.759747 8.04413 0.450738C7.15679 0.139356 6.22163 -0.0129366 5.28153 0.000860041C4.63272 -0.00553055 3.98708 0.0922224 3.36912 0.290376C2.81919 0.465398 2.30963 0.748615 1.87035 1.12346C1.45746 1.47932 1.12389 1.91821 0.891288 2.41163C0.648917 2.9331 0.527042 3.50263 0.53477 4.07782C0.535508 4.30915 0.551857 4.54017 0.583648 4.76929C0.974255 4.13132 1.49696 3.58476 2.11645 3.16653C2.73595 2.7483 3.43779 2.46815 4.17461 2.34499Z" fill="white"/>
<path d="M3.52965 11.7402C2.78351 11.3905 2.09174 10.9346 1.47587 10.3865L0 12.1443C0.794385 12.8776 1.72204 13.451 2.73247 13.8334C3.72176 14.2001 4.7687 14.386 5.82352 14.3822C6.50468 14.3894 7.18312 14.2953 7.83673 14.1031C8.40866 13.937 8.94183 13.6584 9.40513 13.2835C10.1021 12.7124 10.5676 11.9065 10.7147 11.0165C9.77931 12.0172 7.52495 12.1797 6.23094 12.1849C6.11765 12.1932 6.00539 12.2047 5.88378 12.2047C5.07494 12.2204 4.27216 12.062 3.52965 11.7402Z" fill="white"/>
<path d="M3.52965 11.7402C2.78351 11.3905 2.09174 10.9346 1.47587 10.3865L0 12.1443C0.794385 12.8776 1.72204 13.451 2.73247 13.8334C3.72176 14.2001 4.7687 14.386 5.82352 14.3822C6.50468 14.3894 7.18312 14.2953 7.83673 14.1031C8.40866 13.937 8.94183 13.6584 9.40513 13.2835C10.1021 12.7124 10.5676 11.9065 10.7147 11.0165C9.77931 12.0172 7.52495 12.1797 6.23094 12.1849C6.11765 12.1932 6.00539 12.2047 5.88378 12.2047C5.07494 12.2204 4.27216 12.062 3.52965 11.7402Z" fill="white"/>
<path d="M28.52 0.200562H30.9562V11.9909H38.3055V14.2111H28.52V0.200562Z" fill="white"/>
<path d="M44.3484 0.200562H41.6325L47.4446 14.3069H49.6013L49.7416 13.9674L48.5629 10.9652L44.3484 0.200562Z" fill="white"/>
<path d="M72.3975 2.42178H64.489V6.02386H71.4994V8.24197H64.489V11.9909H72.492V14.2111H62.0527V0.204712H72.3975V2.42178Z" fill="white"/>
<path d="M17.7988 26.7779H17.7541L14.8595 22.526V28.9616H13.9854V21.0004H14.8938L17.7884 25.3439L20.682 21.0004H21.5904V28.9606H20.6934V22.5135L17.7988 26.7779Z" fill="white"/>
<path d="M32.3041 21.8209H27.4586V24.5409H31.7938V25.3605H27.4586V28.1461H32.3612V28.9646H26.5616V21.0002H32.3041V21.8209Z" fill="white"/>
<path d="M40.7042 26.7778H40.6584L37.7638 22.5259V28.9615H36.8897V21.0002H37.7981L40.6927 25.3438L43.5863 21.0002H44.4947V28.9605H43.5977V22.5134L40.7042 26.7778Z" fill="white"/>
<path d="M53.9072 21.1441C54.2004 21.2266 54.4765 21.3614 54.722 21.5419C54.9425 21.7057 55.1207 21.92 55.2417 22.1667C55.3646 22.4237 55.4265 22.7056 55.4225 22.9905C55.4285 23.2263 55.3933 23.4613 55.3186 23.685C55.2512 23.8732 55.1536 24.0491 55.0297 24.2057C54.9152 24.3523 54.7796 24.4811 54.6274 24.5879C54.4838 24.6885 54.3302 24.774 54.1691 24.843C54.3987 24.9091 54.6209 24.9988 54.8322 25.1107C55.0301 25.2141 55.2115 25.3464 55.3706 25.5033C55.5249 25.6599 55.6476 25.8448 55.7323 26.0479C55.8268 26.279 55.8732 26.5271 55.8684 26.7769C55.8724 27.0961 55.8011 27.4119 55.6606 27.6985C55.5241 27.9714 55.3241 28.2075 55.0775 28.3868C54.8019 28.5836 54.4926 28.7279 54.1649 28.8127C53.7806 28.9153 53.384 28.9651 52.9863 28.9606H49.4629V21.0004H52.8387C53.1999 20.9961 53.5599 21.0445 53.9072 21.1441ZM54.0194 24.1849C54.1873 24.063 54.3219 23.9009 54.4109 23.7133C54.4999 23.5256 54.5404 23.3186 54.5287 23.1112C54.5354 22.9266 54.4977 22.743 54.4188 22.5759C54.34 22.4088 54.2222 22.2631 54.0755 22.1511C53.6925 21.8921 53.2344 21.7679 52.7732 21.7981H50.363V24.5494H52.7057C53.1703 24.5691 53.6293 24.4416 54.0173 24.1849H54.0194ZM54.4507 27.7891C54.6192 27.67 54.7551 27.5105 54.8459 27.325C54.9367 27.1396 54.9795 26.9343 54.9704 26.7279C54.9782 26.5259 54.9334 26.3254 54.8402 26.146C54.7471 25.9667 54.6089 25.8148 54.4393 25.7053C53.9605 25.4345 53.4133 25.3093 52.8647 25.345H50.363V28.165H53.0237C53.527 28.193 54.0263 28.0614 54.4507 27.7891Z" fill="white"/>
<path d="M66.1279 21.8209H61.2824V24.5409H65.6176V25.3605H61.2824V28.1461H66.1851V28.9646H60.3855V21.0002H66.1279V21.8209Z" fill="white"/>
<path d="M76.1836 28.9616L73.8804 25.8688H71.6105V28.9616H70.7135V21.0003H74.1299C74.5317 20.995 74.9318 21.0527 75.3158 21.1711C75.6449 21.2727 75.9512 21.4371 76.2179 21.6554C76.4644 21.8588 76.6622 22.115 76.7969 22.4051C76.9371 22.7103 77.0081 23.0429 77.0048 23.3788C77.0099 23.6838 76.9559 23.9869 76.8457 24.2713C76.7438 24.5269 76.5914 24.7592 76.3977 24.9544C76.1973 25.1529 75.9651 25.3162 75.7108 25.4376C75.4374 25.569 75.147 25.6612 74.8481 25.7115L77.2885 28.9606L76.1836 28.9616ZM75.5694 22.2489C75.1292 21.9459 74.6005 21.7993 74.0675 21.8324H71.6105V25.0742H74.0561C74.3336 25.0767 74.6099 25.0381 74.8761 24.9596C75.1101 24.8914 75.3298 24.7814 75.5247 24.6347C75.7047 24.4962 75.8505 24.318 75.9508 24.114C76.0562 23.8972 76.1089 23.6585 76.1047 23.4174C76.1155 23.194 76.0725 22.9714 75.9793 22.7682C75.8862 22.565 75.7455 22.3873 75.5694 22.25V22.2489Z" fill="white"/>
<defs>
<linearGradient id="paint0_linear" x1="10.9848" y1="12.7857" x2="-1.99703" y2="5.45986" gradientUnits="userSpaceOnUse">
<stop/>
<stop offset="0.038" stop-color="#2E2E2E"/>
<stop offset="0.082" stop-color="#5F5F5F"/>
<stop offset="0.129" stop-color="#8A8A8A"/>
<stop offset="0.177" stop-color="#AEAEAE"/>
<stop offset="0.228" stop-color="#CBCBCB"/>
<stop offset="0.282" stop-color="#E2E2E2"/>
<stop offset="0.339" stop-color="#F2F2F2"/>
<stop offset="0.404" stop-color="#FCFCFC"/>
<stop offset="0.492" stop-color="white"/>
<stop offset="0.608" stop-color="#C9C9C9"/>
<stop offset="0.872" stop-color="#424242"/>
<stop offset="1"/>
</linearGradient>
</defs>
</svg>
