<svg width="111" height="29" viewBox="0 0 111 29" fill="none" xmlns="http://www.w3.org/2000/svg">
<path d="M60.8858 13.0358C60.4902 13.3378 60.0655 13.5995 59.6179 13.8168C59.1445 14.0439 58.645 14.2118 58.1307 14.3166C57.5423 14.435 56.9433 14.4923 56.3432 14.4874C55.3697 14.4975 54.4045 14.3065 53.508 13.9261C52.6662 13.5693 51.903 13.0495 51.2622 12.3965C50.6216 11.7375 50.116 10.9592 49.7739 10.1056C49.0594 8.28693 49.0561 6.26512 49.7646 4.44409C50.1031 3.58043 50.6104 2.79317 51.2566 2.12853C51.9028 1.4639 52.6749 0.935248 53.5278 0.573581C54.4498 0.184062 55.4424 -0.0102202 56.4429 0.00294649C57.0291 -0.00165479 57.6144 0.0520532 58.19 0.163297C58.687 0.261626 59.1723 0.41242 59.6377 0.613145C60.0663 0.800781 60.4744 1.03212 60.8557 1.30352C61.2292 1.57068 61.5828 1.86475 61.9137 2.18341L60.3371 4.00362C59.8054 3.50362 59.2074 3.07963 58.5599 2.74366C57.8961 2.4151 57.1635 2.25051 56.4232 2.26362C55.7866 2.25748 55.1563 2.39075 54.5764 2.65411C54.0215 2.9058 53.5226 3.2662 53.109 3.71412C52.6905 4.17 52.365 4.70345 52.1507 5.28442C51.9205 5.9053 51.8053 6.56306 51.8109 7.22538C51.8059 7.89071 51.9211 8.55147 52.1507 9.17575C52.3646 9.76285 52.69 10.3028 53.109 10.7658C53.5205 11.2188 54.0198 11.583 54.5764 11.8363C55.1563 12.0996 55.7866 12.2329 56.4232 12.2267C57.1843 12.2471 57.9387 12.0786 58.6192 11.7363C59.2802 11.3737 59.8913 10.9264 60.4369 10.4055L62.0134 12.006C61.6675 12.3808 61.2903 12.7254 60.8858 13.0358Z" fill="white"/>
<path d="M78.1461 10.0254C77.7978 10.8886 77.282 11.6739 76.6287 12.336C75.9392 13.0307 75.1171 13.5792 74.2115 13.9488C73.3059 14.3184 72.3353 14.5016 71.3575 14.4874C70.3442 14.4998 69.339 14.3057 68.4029 13.9167C67.5456 13.5611 66.7682 13.0369 66.1164 12.3752C65.4647 11.7134 64.952 10.9275 64.6085 10.0639C63.8908 8.26578 63.8908 6.25991 64.6085 4.46176C64.9573 3.59861 65.4734 2.81328 66.1269 2.15113C66.8162 1.45615 67.6382 0.90754 68.5439 0.538084C69.4496 0.168628 70.4203 -0.0140926 71.3981 0.00084753C72.4114 -0.0121189 73.4168 0.182049 74.3527 0.571482C75.21 0.926941 75.9874 1.45103 76.639 2.1128C77.2906 2.77457 77.803 3.56057 78.1461 4.42426C78.8653 6.22178 78.8653 8.22787 78.1461 10.0254ZM75.7558 5.33435C75.5344 4.7465 75.2023 4.20673 74.7778 3.74431C74.3528 3.28636 73.8399 2.91906 73.2698 2.66447C72.6675 2.3934 72.0136 2.25664 71.3534 2.26359C70.6972 2.25621 70.047 2.38934 69.4463 2.65408C68.8839 2.90252 68.3778 3.26318 67.9591 3.71409C67.5385 4.17378 67.2097 4.71 66.9905 5.29373C66.5249 6.5385 66.5249 7.9101 66.9905 9.15487C67.2118 9.74333 67.5442 10.2836 67.9695 10.746C68.3943 11.2037 68.9068 11.5709 69.4765 11.8258C70.3605 12.2278 71.3479 12.3428 72.3004 12.1545C73.2528 11.9663 74.1227 11.4844 74.7882 10.7762C75.2083 10.3159 75.5367 9.77934 75.7558 9.19548C76.2214 7.95071 76.2214 6.57912 75.7558 5.33435Z" fill="white"/>
<path d="M89.048 10.8061H88.968L84.5958 4.24597V14.2487H82.1597V0.242188H84.7745L89.0283 6.8638L93.281 0.242188H95.8969V14.2466H93.4608V4.20326L89.048 10.8061Z" fill="white"/>
<path d="M6.05067 10.6314L3.00351 1.14315L2.71356 0.244507H0.0582275L4.93242 14.3541H7.04941L7.15334 14.0344L6.05171 10.6148L6.05067 10.6314Z" fill="white"/>
<path d="M2.7146 0.244263L3.00485 1.14291L2.7146 0.244263Z" fill="#737373"/>
<path d="M9.50934 0.196533H11.6045L15.0705 10.7136L18.4346 0.237145H21.0328L16.1181 14.4685H13.9782L10.5133 4.31485L7.04728 14.4685H4.91574L0 0.237145H2.67925L6.04338 10.7136L9.50934 0.196533Z" fill="white"/>
<path style="mix-blend-mode:multiply" opacity="0.8" d="M9.50934 0.196533H11.6045L15.0705 10.7136L18.4346 0.237145H21.0328L16.1181 14.4685H13.9782L10.5133 4.31485L7.04728 14.4685H4.91574L0 0.237145H2.67925L6.04338 10.7136L9.50934 0.196533Z" fill="url(#paint0_linear)"/>
<path d="M6.04338 10.7128L2.97024 1.14225L2.6782 0.236328H0L4.91574 14.4667H7.05144L7.16162 14.1439L6.04959 10.6951L6.04338 10.7128Z" fill="white"/>
<path d="M2.6792 0.236084L2.97151 1.14201L2.6792 0.236084Z" fill="#737373"/>
<path style="mix-blend-mode:multiply" opacity="0.8" d="M18.4336 0.235962L15.0695 10.7125L16.2636 14.0446L21.0318 0.239108L18.4336 0.235962Z" fill="url(#paint1_linear)"/>
<path d="M37.7952 0.239136H40.2312V12.0235H47.581V14.2446H37.7952V0.239136Z" fill="white"/>
<path d="M110.34 2.45296H102.427V6.05689H109.441V8.27486H102.427V12.0235H110.439V14.2457H99.9895V0.230835H110.34V2.45296Z" fill="white"/>
<path d="M34.268 2.45296H26.356V6.05689H33.369V8.27486H26.356V12.0235H34.3678V14.2457H23.9178V0.230835H34.268V2.45296Z" fill="white"/>
<path d="M27.788 26.7816H27.7423L24.849 22.529V28.9653H23.975V21.0004H24.8833L27.7766 25.3436L30.671 21.0004H31.5793V28.9611H30.6783V22.5124L27.788 26.7816Z" fill="white"/>
<path d="M42.2932 21.8239H37.4471V24.5407H41.7829V25.3602H37.4471V28.1467H42.3504V28.9651H36.5502V21.0002H42.2932V21.8239Z" fill="white"/>
<path d="M50.6926 26.7815H50.6469L47.7535 22.5289V28.9651H46.8795V21.0002H47.7878L50.6812 25.3435L53.5755 21.0002H54.4839V28.961H53.587V22.5122L50.6926 26.7815Z" fill="white"/>
<path d="M63.8955 21.1462C64.1891 21.2292 64.4654 21.3643 64.7114 21.545C64.9315 21.7091 65.1096 21.9232 65.231 22.1698C65.3539 22.4267 65.4158 22.7086 65.4118 22.9934C65.4178 23.2292 65.3826 23.4643 65.3079 23.688C65.2409 23.8761 65.1437 24.052 65.02 24.2086C64.905 24.3548 64.7696 24.4835 64.6178 24.5908C64.4737 24.6908 64.3202 24.7766 64.1595 24.8469C64.3886 24.9131 64.6104 25.0024 64.8215 25.1135C65.0195 25.2167 65.201 25.3491 65.3599 25.5061C65.5148 25.6628 65.6379 25.8481 65.7226 26.0517C65.8168 26.2829 65.8632 26.5309 65.8587 26.7806C65.8621 27.0999 65.7909 27.4154 65.6509 27.7022C65.5143 27.9751 65.3139 28.2108 65.0668 28.3894C64.7914 28.5861 64.4825 28.7308 64.1553 28.8164C63.771 28.9188 63.3745 28.9686 62.9768 28.9642H59.4526V21.0004H62.8292C63.1898 20.9974 63.5489 21.0465 63.8955 21.1462ZM64.0078 24.1878C64.1759 24.0661 64.3106 23.904 64.3997 23.7164C64.4887 23.5287 64.529 23.3216 64.517 23.1142C64.5238 22.9296 64.4863 22.7461 64.4076 22.579C64.329 22.412 64.2114 22.2663 64.0649 22.1541C63.6819 21.8951 63.2238 21.771 62.7627 21.8011H60.3516V24.5522H62.6952C63.1601 24.5728 63.6197 24.4452 64.0078 24.1878ZM64.4391 27.7928C64.6074 27.6734 64.7431 27.5136 64.8339 27.328C64.9247 27.1425 64.9676 26.9371 64.9587 26.7306C64.9664 26.5286 64.9214 26.328 64.828 26.1486C64.7347 25.9693 64.5963 25.8175 64.4266 25.7081C63.9482 25.4373 63.4014 25.3121 62.8531 25.3478H60.3506V28.1687H63.0111C63.5147 28.197 64.0144 28.0654 64.4391 27.7928Z" fill="white"/>
<path d="M76.1174 21.8239H71.2713V24.5407H75.6061V25.3602H71.2713V28.1467H76.1735V28.9651H70.3785V21.0002H76.1216L76.1174 21.8239Z" fill="white"/>
<path d="M86.1755 28.9652L83.8715 25.8715H81.6027V28.9652H80.7058V21.0003H84.1219C84.5236 20.995 84.9237 21.0527 85.3077 21.1711C85.6367 21.273 85.9433 21.437 86.2109 21.6543C86.4565 21.8589 86.6541 22.1152 86.7897 22.405C86.93 22.7102 87.001 23.0427 86.9976 23.3787C87.0029 23.6837 86.9488 23.9868 86.8386 24.2711C86.7366 24.5266 86.5843 24.759 86.3906 24.9541C86.19 25.1526 85.9579 25.3162 85.7037 25.4384C85.4304 25.5695 85.14 25.6613 84.8411 25.7112L87.2813 28.9611L86.1755 28.9652ZM85.5613 22.252C85.1212 21.949 84.5925 21.8023 84.0596 21.8355H81.6027V25.077H84.0492C84.3263 25.0796 84.6023 25.041 84.8681 24.9625C85.1022 24.8947 85.322 24.7846 85.5166 24.6376C85.6966 24.4988 85.8427 24.3208 85.9437 24.1169C86.0483 23.8999 86.1006 23.6613 86.0965 23.4203C86.1076 23.1963 86.0645 22.9729 85.971 22.7692C85.8774 22.5654 85.7362 22.3873 85.5592 22.2499L85.5613 22.252Z" fill="white"/>
<defs>
<linearGradient id="paint0_linear" x1="9.06513" y1="6.64748" x2="4.30806" y2="13.8898" gradientUnits="userSpaceOnUse">
<stop stop-color="white"/>
<stop offset="0.27" stop-color="#B3B3B3"/>
<stop offset="0.629" stop-color="#535353"/>
<stop offset="0.881" stop-color="#171717"/>
<stop offset="1"/>
</linearGradient>
<linearGradient id="paint1_linear" x1="18.4143" y1="4.57188" x2="10.2451" y2="8.24654" gradientUnits="userSpaceOnUse">
<stop stop-color="white"/>
<stop offset="0.335" stop-color="#B9B9B9"/>
<stop offset="0.647" stop-color="#808080"/>
<stop offset="0.876" stop-color="#5C5C5C"/>
<stop offset="0.999" stop-color="#4F4F4F"/>
</linearGradient>
</defs>
</svg>
